<svg width="128" height="44" viewBox="0 0 128 44" fill="none" xmlns="http://www.w3.org/2000/svg">
<path d="M110.874 36.8434L110.784 36.8341C110.842 36.9377 110.863 36.9018 110.874 36.8434Z" fill="#005B47"/>
<path d="M111.351 38.3958C111.383 38.3135 111.396 38.2341 111.398 38.1585C111.334 38.1666 111.304 38.2583 111.351 38.3958Z" fill="#005B47"/>
<path d="M111.355 38.0752C111.366 38.046 111.367 38.014 111.366 37.9842C111.327 38.008 111.311 38.0479 111.355 38.0752Z" fill="#005B47"/>
<path d="M118.64 43.0479L118.847 42.6547L118.835 42.6777L118.64 43.0479Z" fill="#005B47"/>
<path d="M116.481 39.4473L116.461 39.4488C116.484 39.4742 116.504 39.4976 116.525 39.5215L116.481 39.4473Z" fill="#005B47"/>
<path d="M116.229 25.2131L116.203 25.0782C116.188 25.133 116.204 25.1748 116.229 25.2131Z" fill="#005B47"/>
<path d="M116.876 25.6859C116.847 25.6791 116.813 25.6697 116.766 25.6505C116.814 25.6776 116.841 25.6895 116.876 25.6859Z" fill="#005B47"/>
<path d="M115.788 25.2514L115.681 25.2733C115.717 25.2765 115.754 25.2673 115.788 25.2514Z" fill="#005B47"/>
<path d="M116.875 25.6856C116.879 25.6868 116.886 25.6888 116.89 25.6902C116.889 25.6888 116.891 25.6878 116.89 25.6866C116.884 25.6874 116.881 25.685 116.875 25.6856Z" fill="#005B47"/>
<path d="M117.758 29.3486C117.782 29.3279 117.8 29.312 117.823 29.2845C117.805 29.3058 117.771 29.3352 117.75 29.3508C117.756 29.3471 117.751 29.3525 117.758 29.3486Z" fill="#005B47"/>
<path d="M110.432 14.0546C110.394 14.0775 110.365 14.1003 110.332 14.1233C110.376 14.1216 110.419 14.1018 110.432 14.0546Z" fill="#005B47"/>
<path d="M108.214 17.011L108.205 16.9989C108.193 17.0124 108.182 17.0249 108.171 17.0376L108.214 17.011Z" fill="#005B47"/>
<path d="M125.465 35.8269C125.438 35.7567 125.404 35.7034 125.367 35.6593C125.343 35.7126 125.377 35.7858 125.465 35.8269Z" fill="#005B47"/>
<path d="M119.685 34.9258C119.715 34.948 119.744 34.9699 119.774 34.9917C119.755 34.958 119.731 34.9328 119.685 34.9258Z" fill="#005B47"/>
<path d="M118.398 35.2475C118.391 35.2217 118.378 35.2004 118.365 35.1814C118.353 35.2232 118.361 35.2593 118.398 35.2475Z" fill="#005B47"/>
<path d="M127.817 35.1067L127.893 35.1421L127.893 35.1195C127.872 35.1144 127.851 35.1082 127.831 35.1024C127.826 35.1042 127.822 35.1046 127.817 35.1067Z" fill="#005B47"/>
<path d="M127.772 33.8239L127.77 33.6822C127.764 33.6856 127.759 33.688 127.752 33.6912L127.754 33.8303C127.759 33.8283 127.765 33.826 127.772 33.8239Z" fill="#005B47"/>
<path d="M127.759 34.4746L127.778 34.4832L127.777 34.449L127.759 34.4404L127.759 34.4746Z" fill="#005B47"/>
<path d="M127.822 34.5039C127.837 34.5016 127.852 34.496 127.867 34.4911L127.797 34.4587L127.798 34.4924L127.822 34.5039Z" fill="#005B47"/>
<path d="M127.772 35.8936C127.777 35.8921 127.784 35.89 127.79 35.8887L127.789 35.7535C127.783 35.7541 127.776 35.7543 127.77 35.7546L127.772 35.8936Z" fill="#005B47"/>
<path d="M127.773 36.0129L127.772 35.8936C127.677 35.9187 127.553 35.9547 127.38 36.0116C127.521 35.9934 127.651 35.9974 127.773 36.0129Z" fill="#005B47"/>
<path d="M127.758 34.3443C127.764 34.3449 127.77 34.3457 127.777 34.3464L127.776 34.3364L127.758 34.3083L127.758 34.3443Z" fill="#005B47"/>
<path d="M127.798 34.574L127.798 34.5399C127.831 34.559 127.862 34.5793 127.888 34.605L127.888 34.6279C127.859 34.608 127.829 34.59 127.798 34.574ZM127.76 34.5547L127.76 34.5178C127.766 34.5214 127.772 34.5249 127.778 34.5283L127.778 34.5639C127.772 34.5609 127.766 34.5575 127.76 34.5547ZM126.348 35.4315C126.281 35.4002 126.249 35.3852 126.195 35.394C126.221 35.4731 126.347 35.5982 126.24 35.616C126.192 35.5391 126.028 35.4952 125.975 35.4139C125.995 35.4067 126.013 35.3979 126.028 35.3872C126.194 35.4294 126.345 35.1949 126.348 35.4315ZM125.582 35.5783L125.435 35.5513C125.404 35.5584 125.373 35.5581 125.342 35.5346L125.435 35.5513C125.515 35.5329 125.582 35.4574 125.582 35.5783ZM124.034 35.5648C124.033 35.5642 124.031 35.5635 124.03 35.5629C124.04 35.5202 124.068 35.4969 124.103 35.4808C124.076 35.5099 124.051 35.538 124.034 35.5648ZM120.399 35.0812C120.367 34.9607 120.475 35.0522 120.54 34.9826C120.644 35.025 120.748 35.072 120.854 35.1107C120.749 35.3355 120.56 35.0617 120.399 35.0812ZM117.885 34.8962C117.898 34.9005 117.911 34.9052 117.924 34.91C117.94 34.9307 117.954 34.9502 117.961 34.9672C117.933 34.9487 117.909 34.9224 117.885 34.8962ZM113.115 34.5922C113.113 34.5894 113.112 34.5864 113.111 34.5834L113.157 34.5107C113.16 34.5114 113.162 34.5122 113.165 34.5129L113.115 34.5922ZM113.549 35.7238C113.588 35.7517 113.621 35.7919 113.644 35.8504L113.549 35.7238C113.383 35.5957 113.121 35.6589 113.26 35.319L113.549 35.7238ZM114.775 38.008C114.902 37.9746 115.177 38.3348 115.204 38.4685C115.064 38.3327 114.717 37.9641 114.775 38.008ZM115.435 38.4192L115.395 38.253C115.49 38.3745 115.476 38.4083 115.435 38.4192L115.469 38.5585C115.174 38.3535 115.356 38.4366 115.435 38.4192ZM118.149 41.3993C118.137 41.39 118.125 41.381 118.114 41.3716C118.01 41.2953 117.906 41.2178 117.801 41.1411C117.793 41.1284 117.786 41.1156 117.782 41.1036C117.93 41.1171 118.048 41.2677 118.149 41.3993ZM118.717 41.8235C118.692 41.8066 118.667 41.7903 118.642 41.7732C118.648 41.737 118.654 41.7018 118.656 41.6665C118.689 41.7265 118.714 41.7833 118.717 41.8235ZM117.707 43.4722C117.498 43.4437 117.18 43.136 117.334 43.1934C117.646 43.3051 117.422 43.0614 117.462 42.9999C117.47 43.001 117.477 43.003 117.484 43.0034C117.518 43.0012 117.543 42.9965 117.565 42.9905C117.613 43.0644 117.568 43.1641 117.681 43.2164C117.681 43.2174 117.681 43.2181 117.681 43.2191C117.64 43.2074 117.598 43.1967 117.56 43.1817C117.469 43.2063 117.508 43.2579 117.572 43.3107C117.636 43.3627 117.721 43.4202 117.707 43.4722ZM116.635 42.9042C116.623 42.8868 116.61 42.8718 116.599 42.8487C116.613 42.8641 116.625 42.8834 116.635 42.9042C116.793 43.1178 117.023 42.9644 117.071 43.2594C116.737 43.295 116.703 43.0501 116.635 42.9042ZM112.494 39.1467C112.453 39.0471 112.433 38.9987 112.376 38.9449C112.339 39.033 112.366 39.2717 112.249 39.1622C112.262 39.0329 112.099 38.7655 112.163 38.6652C112.173 38.7162 112.195 38.769 112.24 38.824C112.266 38.8364 112.285 38.8424 112.3 38.8448C112.436 38.9661 112.619 38.9942 112.512 39.1249C112.488 39.0914 112.462 39.0589 112.439 39.0244C112.469 39.0672 112.49 39.1017 112.507 39.1311C112.503 39.1364 112.499 39.141 112.494 39.1467ZM111.657 38.3625L111.548 38.166C111.514 38.1334 111.486 38.0953 111.478 38.0417L111.548 38.166C111.552 38.1703 111.557 38.1741 111.562 38.178C111.59 38.2236 111.635 38.269 111.69 38.3183C111.685 38.3314 111.677 38.3457 111.657 38.3625ZM111.093 37.2523C111.102 37.2733 111.111 37.2941 111.12 37.315C111.12 37.3408 111.12 37.3646 111.116 37.3821C111.103 37.3405 111.098 37.2966 111.093 37.2523ZM110.95 37.0705C110.891 36.9977 110.834 36.9244 110.782 36.8475C110.787 36.7714 110.8 36.723 110.818 36.6938C110.843 36.7084 110.87 36.7191 110.899 36.7215C110.887 36.7401 110.883 36.7986 110.874 36.8438L110.991 36.853C110.994 36.9051 111.004 36.9544 111.015 37.0033C110.996 36.9782 110.973 36.9538 110.942 36.9313C110.919 36.9726 110.881 36.9645 110.95 37.0705ZM109.068 33.3121L109.009 33.1481C109.077 33.1921 109.146 33.2347 109.214 33.2776C109.198 33.3493 109.157 33.378 109.068 33.3121ZM93.4558 14.6179C93.4487 14.6187 93.4336 14.6044 93.4012 14.5639C93.2619 14.4465 93.2393 14.3472 93.2624 14.2911C93.3258 14.4006 93.39 14.5095 93.4558 14.6179ZM92.5393 9.97459C92.546 9.98678 92.5495 9.99672 92.5557 10.0085C92.5505 10.0018 92.5437 9.99578 92.5385 9.98903C92.5389 9.98397 92.5391 9.97984 92.5393 9.97459ZM92.9435 10.3916C92.9045 10.3273 92.8709 10.2607 92.8359 10.1943C92.8344 10.1893 92.8339 10.1848 92.8318 10.1793C92.872 10.2348 92.9084 10.3029 92.9435 10.3916ZM93.3334 10.9685C93.3362 10.9762 93.3388 10.9843 93.3416 10.992L93.311 11.0047C93.3078 10.9972 93.3041 10.9897 93.3009 10.9822L93.3334 10.9685ZM101.452 18.937L101.467 19.1808C101.408 19.1399 101.373 19.0972 101.347 19.0542C101.29 18.9601 101.272 18.8643 101.111 18.764C101.303 18.8137 101.392 18.8716 101.452 18.937ZM100.017 13.0322C100.032 13.0716 100.048 13.1083 100.064 13.1466C100.061 13.1599 100.058 13.1717 100.055 13.1856C100.042 13.1346 100.029 13.0834 100.017 13.0322ZM99.5074 9.57952C99.5999 10.0063 99.5724 10.184 99.5341 10.3243C99.494 10.464 99.4206 10.5695 99.4482 10.83C99.2291 10.1627 99.5022 10.2258 99.5074 9.57952ZM99.5823 9.30971C99.5803 9.22252 99.5805 9.12764 99.5857 9.03276C99.5964 8.93732 99.6104 8.8417 99.6274 8.75357C99.6492 8.93733 99.6644 9.06164 99.6715 9.16195C99.6573 9.26152 99.6449 9.36015 99.6345 9.45708C99.6436 9.4569 99.652 9.45896 99.6602 9.46215C99.6518 9.52478 99.6421 9.59396 99.6367 9.6804C99.6023 9.62753 99.5868 9.4839 99.5823 9.30971ZM105.751 1.31008C105.679 1.31496 105.607 1.31702 105.534 1.32359C105.637 1.31308 105.706 1.30915 105.751 1.31008ZM110.781 2.75179C110.779 2.75273 110.782 2.75048 110.783 2.74992C110.783 2.75029 110.785 2.75142 110.783 2.75123L110.781 2.75179ZM109.234 2.91304C108.894 2.84648 108.552 2.75779 108.446 2.65054C108.725 2.67604 109.044 2.77411 109.303 2.83654C109.564 2.90348 109.777 2.94511 109.867 2.92936C109.885 2.98767 109.57 2.9768 109.234 2.91304ZM107.23 2.6151C107.225 2.57198 107.102 2.55267 106.94 2.55154C106.944 2.55042 106.949 2.54854 106.953 2.5476C107.068 2.51873 107.166 2.49379 107.254 2.47166C107.331 2.45047 107.399 2.4321 107.463 2.41447C107.474 2.41354 107.485 2.41297 107.497 2.41185C107.405 2.4771 107.316 2.54685 107.23 2.6151ZM106.026 2.58379C106.225 2.50354 106.423 2.4306 106.619 2.36535C106.63 2.3811 106.677 2.39535 106.75 2.40622C106.746 2.4081 106.741 2.41016 106.737 2.41204C106.623 2.4711 106.549 2.52285 106.534 2.57742C106.321 2.6031 106.132 2.64154 106.086 2.64679C106.047 2.6226 106.028 2.60235 106.026 2.58379ZM103.221 4.54413C103.153 4.56101 103.081 4.59326 103.02 4.61557C103.037 4.56851 103.053 4.52257 103.068 4.47869C103.124 4.43801 103.178 4.40707 103.231 4.38157C103.243 4.37632 103.256 4.37369 103.268 4.369C103.252 4.42357 103.236 4.48169 103.221 4.54413ZM102.795 5.35433L102.737 5.48971C102.748 5.45409 102.758 5.42258 102.769 5.38865C102.777 5.37721 102.786 5.36559 102.795 5.35433ZM102.35 8.68982C102.247 8.90527 102.219 9.62996 102.081 9.64571C102.157 9.32714 102.101 9.05976 102.06 8.8537C102.023 8.64782 102.006 8.50457 102.152 8.44401C102.118 8.65607 102.097 8.7607 102.112 8.9152C102.191 8.80326 102.335 8.38026 102.35 8.68982ZM102.395 11.0944C102.409 11.1825 102.416 11.2738 102.403 11.3762C102.398 11.2824 102.395 11.1885 102.395 11.0944C102.356 10.8688 102.261 10.7068 102.388 10.65L102.395 11.0944ZM105.053 17.1965C105.084 17.1875 105.108 17.1689 105.116 17.1329C105.116 17.1805 105.099 17.221 105.074 17.2578C105.068 17.2628 105.062 17.2681 105.055 17.2733C105.057 17.2527 105.056 17.2274 105.053 17.1965ZM106.933 14.7302C106.937 14.7312 106.94 14.7308 106.943 14.7315L106.938 14.7349C106.936 14.7355 106.934 14.7364 106.932 14.7372C106.933 14.7347 106.933 14.7329 106.933 14.7302ZM110.85 10.9301L110.849 10.9322L110.739 10.8735C110.74 10.8731 110.741 10.8729 110.743 10.8725L110.85 10.9301ZM110.933 10.8574L111.57 11.1981C111.554 11.222 111.534 11.2453 111.512 11.2678L111.488 11.2551C111.485 11.2584 111.482 11.2627 111.479 11.2663L111.502 11.2785C111.501 11.2791 111.501 11.2796 111.5 11.2802L111.478 11.2682C111.446 11.3049 111.416 11.3443 111.388 11.3856C111.358 11.4126 111.332 11.4382 111.314 11.4619L111.256 11.4268C111.264 11.406 111.271 11.3856 111.279 11.3646C111.327 11.3246 111.372 11.2811 111.415 11.235L111.333 11.1905C111.333 11.1898 111.333 11.189 111.333 11.1883L111.387 11.2168C111.387 11.217 111.387 11.2172 111.387 11.2174C111.387 11.2174 111.387 11.2172 111.387 11.2172L111.417 11.2333C111.421 11.2295 111.425 11.2267 111.428 11.223L111.406 11.2108C111.409 11.2099 111.413 11.2087 111.416 11.2074L111.434 11.2172C111.436 11.2151 111.438 11.2136 111.44 11.2115L111.426 11.204C111.445 11.1943 111.463 11.181 111.48 11.1628L111.01 10.9115C110.989 10.925 110.968 10.9414 110.947 10.9567L110.979 10.974C110.978 10.9762 110.977 10.9789 110.976 10.9813L110.94 10.9622C110.936 10.9654 110.931 10.9682 110.927 10.9712L110.97 10.9942C110.97 10.995 110.97 10.9957 110.969 10.9965L110.925 10.9725C110.913 10.9802 110.902 10.9871 110.891 10.9927C110.897 10.9835 110.902 10.9736 110.908 10.9639L110.871 10.9436C110.871 10.9429 110.871 10.9421 110.871 10.9415L110.91 10.9618C110.912 10.9579 110.915 10.9539 110.917 10.9498L110.877 10.928C110.89 10.9027 110.909 10.8793 110.933 10.8574ZM111.644 11.3572L111.537 11.3002L111.539 11.2984L111.648 11.3565C111.647 11.3567 111.646 11.3571 111.644 11.3572ZM110.366 13.8867L110.35 13.8752C110.356 13.8722 110.361 13.8681 110.367 13.8647C110.366 13.872 110.367 13.8786 110.366 13.8867ZM110.064 14.6541C109.977 14.7218 109.922 14.713 109.853 14.6841C109.928 14.5604 109.997 14.6378 110.064 14.6541ZM107.154 18.1516C107.169 18.1383 107.184 18.1255 107.198 18.1133C107.21 18.1171 107.22 18.1207 107.233 18.1246C107.213 18.1298 107.185 18.1402 107.154 18.1516ZM106.946 18.2062C106.948 18.1583 106.967 18.101 106.998 18.0438C107.009 18.0344 107.016 18.0211 107.021 18.0057C107.025 17.9993 107.029 17.993 107.033 17.9866C107.005 18.0213 107.031 18.0578 107.174 18.1057C107.157 18.1252 107.14 18.1443 107.122 18.1632C107.063 18.1846 106.999 18.2048 106.946 18.2062ZM106.857 18.166C106.862 18.1627 106.867 18.1591 106.872 18.1557L106.92 18.2058C106.892 18.2022 106.869 18.1908 106.857 18.166ZM106.215 19.7281C106.221 19.8155 106.163 19.8284 106.11 19.8136C106.148 19.7814 106.185 19.7461 106.219 19.7094C106.218 19.7144 106.218 19.7189 106.215 19.7281ZM106.495 22.0796L106.537 21.8366C106.57 21.897 106.625 21.9767 106.696 22.0689C106.773 22.2041 106.878 22.373 107.011 22.5722C107.089 22.688 107.176 22.814 107.271 22.9479C107.231 22.9132 107.19 22.8767 107.145 22.8365C106.822 22.4632 106.78 22.4342 106.799 22.4893C106.692 22.3547 106.585 22.221 106.477 22.0863C106.483 22.0841 106.489 22.0824 106.495 22.0796ZM106.55 21.7794C106.564 21.8165 106.587 21.8664 106.618 21.9257C106.587 21.8897 106.56 21.8582 106.538 21.8319L106.542 21.8098C106.544 21.7997 106.548 21.7895 106.55 21.7794ZM113.086 23.9139L113.086 23.937C113.016 23.9617 112.982 23.9606 112.967 23.9451L113.086 23.9139ZM113.533 23.8256L113.367 23.8689L113.385 23.8363L113.538 23.7964C113.541 23.8052 113.538 23.8153 113.533 23.8256ZM114.786 25.369L114.837 25.401C114.981 25.374 114.882 25.2896 114.976 25.2315C115.056 25.2583 115.029 25.4273 114.978 25.3956C114.85 25.3159 114.813 25.548 114.708 25.5064L114.754 25.5583C114.721 25.5538 114.704 25.5465 114.696 25.5375C114.699 25.5326 114.702 25.5274 114.703 25.522C114.701 25.5274 114.698 25.5321 114.694 25.536C114.686 25.5263 114.69 25.5145 114.699 25.5017C114.698 25.5 114.7 25.4989 114.699 25.4974C114.699 25.4989 114.699 25.4998 114.7 25.5013C114.732 25.4567 114.834 25.3991 114.786 25.369ZM115.18 25.3588C115.322 25.3444 115.306 25.3965 115.263 25.4567C115.242 25.4357 115.216 25.4288 115.18 25.4456L115.253 25.47C115.229 25.5 115.202 25.531 115.185 25.5557C115.235 25.4404 114.997 25.5242 115.18 25.3588ZM118.47 22.8082L118.47 22.8313C118.4 22.8562 118.366 22.8549 118.35 22.8395L118.47 22.8082ZM118.917 22.7201L118.751 22.7632L118.768 22.7306L118.922 22.6909C118.924 22.6995 118.922 22.7096 118.917 22.7201ZM120.17 24.2633L120.22 24.2953C120.364 24.2683 120.266 24.1838 120.36 24.126C120.44 24.1526 120.412 24.3216 120.361 24.2899C120.234 24.2102 120.197 24.4423 120.092 24.4007L120.138 24.4528C120.105 24.4483 120.088 24.4408 120.079 24.4318C120.083 24.4269 120.086 24.4217 120.087 24.4163C120.085 24.4217 120.082 24.4262 120.078 24.4303C120.07 24.4206 120.074 24.4088 120.083 24.396C120.082 24.3943 120.084 24.3932 120.082 24.3917C120.083 24.3934 120.083 24.3941 120.083 24.3958C120.116 24.3508 120.218 24.2934 120.17 24.2633ZM120.728 25.308C120.737 25.3354 120.701 25.4106 120.689 25.4655L120.672 25.8741C120.588 25.9195 120.547 25.966 120.703 26.0419C120.66 26.0325 120.619 26.0218 120.578 26.01L120.591 25.9697C120.538 26.0008 120.475 26.0224 120.419 26.0436C120.437 25.9153 120.51 25.8777 120.615 25.8433L120.629 25.4955C120.662 25.4245 120.721 25.3493 120.728 25.308ZM120.564 24.2529C120.787 24.2304 120.622 24.3716 120.569 24.4498C120.618 24.3347 120.381 24.4185 120.564 24.2529ZM120.808 27.2041C120.701 27.1285 120.589 27.0619 120.474 27.0038C120.546 26.9777 120.614 26.9447 120.672 26.9029C120.559 27.0792 120.744 27.0797 120.808 27.2041ZM120.169 32.0844C119.997 32.1832 119.988 32.0454 119.934 31.9659C119.955 31.9473 119.976 31.9276 119.998 31.9081C120.045 31.9533 120.067 32.06 120.169 32.0844ZM120.368 32.1738C120.234 32.2762 120.22 32.2379 120.135 32.1995C120.166 32.1481 120.282 32.1354 120.368 32.1738ZM124.993 32.2693C124.993 32.2694 124.992 32.2696 124.992 32.2698C124.969 32.2488 124.948 32.2246 124.938 32.2006C125 32.2231 125.038 32.2563 124.993 32.2693ZM125.398 32.18C125.408 32.1877 125.418 32.1933 125.43 32.2061C125.419 32.201 125.408 32.1916 125.398 32.18C125.266 32.0855 125.2 32.3148 125.101 32.09C125.247 31.901 125.324 32.1001 125.398 32.18ZM127.134 32.4509L127.17 32.5588L127.136 33.42L127.134 33.4132L127.137 33.4123L127.17 32.5664L127.13 32.5786L127.168 32.5961L127.137 33.3826L127.004 33.3264C127.027 33.3108 127.049 33.3003 127.07 33.2928C127.09 33.3041 127.11 33.3174 127.13 33.3277L127.131 33.2808C127.134 33.2808 127.137 33.2793 127.14 33.2793L127.163 32.6994C127.16 32.6994 127.157 32.6981 127.154 32.6981L127.156 32.651C127.082 32.615 127.01 32.5903 126.939 32.5805C126.886 32.5314 126.841 32.4815 126.799 32.4631C126.901 32.4763 127.167 32.7581 127.134 32.4509ZM127.205 31.9023L127.14 33.5718C127.139 33.5718 127.139 33.5718 127.138 33.5718L127.199 32.027C127.07 32.0534 126.949 32.0752 126.743 32.0157C126.96 31.9526 127.043 31.9531 127.205 31.9023ZM127.647 34.4177C127.667 34.4548 127.701 34.4822 127.74 34.5062C127.583 34.4893 127.443 34.3627 127.346 34.343C127.411 34.3397 127.55 34.4049 127.647 34.4177ZM117.766 34.7929C117.791 34.7957 117.815 34.7987 117.84 34.8007C117.849 34.8142 117.858 34.8274 117.868 34.8401C117.831 34.8251 117.796 34.8094 117.766 34.7929ZM113.388 36.0504C113.382 36.0428 113.378 36.0364 113.372 36.0285C113.294 35.9886 113.25 35.9762 113.224 35.9803C113.248 35.8935 113.28 35.7999 113.311 35.6631C113.442 35.8243 113.439 35.9576 113.388 36.0504ZM109.95 33.7155C109.947 33.7569 109.955 33.7502 109.969 33.7263C109.998 33.7425 110.027 33.7595 110.056 33.7757L110.054 33.8428C110.027 33.8713 110.012 33.9058 110.006 33.944C109.92 33.903 109.845 33.941 109.803 33.6684C109.807 33.66 109.811 33.6478 109.815 33.6382C109.86 33.6641 109.905 33.69 109.95 33.7155ZM93.4324 11.2567C93.4272 11.247 93.4216 11.2374 93.4166 11.2277C93.4171 11.2232 93.4182 11.2209 93.419 11.2175C93.4235 11.2307 93.428 11.2436 93.4324 11.2567ZM96.0858 14.7739C96.1103 14.8105 96.1331 14.8425 96.152 14.8707C96.1536 14.8754 96.1551 14.8802 96.1566 14.8849C96.1544 14.8817 96.1525 14.8791 96.1499 14.8759C96.1318 14.8545 96.1114 14.8341 96.0907 14.814C96.0875 14.799 96.0841 14.7837 96.0812 14.769C96.0827 14.7707 96.0843 14.7722 96.0858 14.7739ZM110.895 11.1575C110.894 11.1579 110.893 11.1589 110.891 11.1592L110.867 11.1444C110.878 11.1403 110.89 11.1386 110.904 11.138C110.902 11.1448 110.898 11.1508 110.895 11.1575ZM111.209 11.625C111.197 11.6379 111.185 11.6537 111.173 11.6644C111.125 11.7351 111.204 11.6569 111.298 11.6042C111.3 11.6047 111.302 11.604 111.304 11.6047C111.285 11.6786 111.196 11.7667 111.126 11.8151C111.107 11.811 111.091 11.8016 111.084 11.7778C111.106 11.7452 111.129 11.7062 111.151 11.664C111.17 11.6507 111.189 11.637 111.209 11.625ZM107.16 17.8552C107.159 17.8666 107.159 17.8758 107.156 17.8917C107.168 17.8752 107.185 17.8546 107.204 17.8321C107.221 17.8263 107.238 17.8233 107.254 17.825C107.256 17.827 107.256 17.8295 107.258 17.8313C107.2 17.8949 107.076 17.9382 107.035 17.9832C107.072 17.9298 107.116 17.8838 107.16 17.8552ZM107.034 17.8538C107.054 17.8379 107.073 17.8231 107.091 17.8126C107.112 17.8156 107.13 17.812 107.146 17.8049C107.149 17.8064 107.153 17.8088 107.156 17.8105C107.158 17.8156 107.161 17.8195 107.162 17.8282C107.118 17.8698 107.074 17.9129 107.03 17.9517C107.033 17.9187 107.032 17.8837 107.034 17.8538ZM112.219 27.2862C112.272 27.2627 112.33 27.2412 112.386 27.2187C112.42 27.2479 112.44 27.2254 112.452 27.1919C112.464 27.187 112.475 27.1819 112.488 27.177L112.508 27.1707C112.519 27.195 112.518 27.2267 112.48 27.2729C112.509 27.2601 112.538 27.2491 112.568 27.2372C112.577 27.2785 112.589 27.3177 112.607 27.3537C112.619 27.3766 112.634 27.3985 112.65 27.4206C112.599 27.4664 112.551 27.5132 112.505 27.5611C112.437 27.6031 112.37 27.6475 112.302 27.6929C112.316 27.6263 112.313 27.5783 112.176 27.5297C112.097 27.6077 112.05 27.6597 112.015 27.7036C112.011 27.6998 112.006 27.6959 112.002 27.6919C111.989 27.6812 111.976 27.67 111.963 27.6591C111.995 27.6317 112.027 27.6047 112.063 27.5761C112.026 27.5997 111.99 27.6252 111.953 27.6507C111.895 27.6017 111.837 27.5524 111.779 27.5026C111.88 27.4471 111.997 27.3874 112.123 27.3297C112.165 27.3689 112.201 27.3668 112.219 27.2862ZM117.869 26.0001C117.868 26.0016 117.867 26.0057 117.865 26.008C117.865 26.0053 117.865 26.0031 117.865 26.0007C117.866 26.0003 117.867 26.0005 117.869 26.0001ZM119.376 31.8455C119.381 31.8232 119.383 31.7997 119.383 31.7754C119.429 31.7343 119.465 31.6972 119.483 31.6683L119.538 31.6565C119.549 31.655 119.56 31.6544 119.572 31.6524C119.516 31.7375 119.448 31.7986 119.376 31.8455ZM113.656 37.0521C113.671 37.0444 113.681 37.0328 113.693 37.0225C113.685 37.0384 113.673 37.0487 113.656 37.0521ZM114.146 38.458L114.115 38.3837C114.119 38.3892 114.124 38.3948 114.128 38.4004C114.134 38.4197 114.139 38.4389 114.146 38.458ZM114.361 38.6903L114.316 38.7514C114.293 38.685 114.271 38.6189 114.25 38.5523C114.287 38.5982 114.323 38.6444 114.361 38.6903ZM114.876 39.2461C114.804 39.1772 114.733 39.1094 114.667 39.046C114.58 38.9595 114.505 38.8787 114.459 38.8015C114.588 38.95 114.724 39.0977 114.876 39.2429C114.876 39.2438 114.876 39.2449 114.876 39.2461ZM113.377 38.2875C113.4 38.2862 113.419 38.2787 113.435 38.2662C113.501 38.3164 113.575 38.4075 113.622 38.4947C113.43 38.4222 113.41 38.3764 113.377 38.2875ZM111.098 34.3001C111.114 34.3072 111.129 34.3143 111.145 34.3215L111.101 34.3655C111.129 34.3603 111.15 34.3479 111.167 34.3312C111.19 34.3417 111.212 34.3522 111.235 34.3625C111.264 34.4908 111.291 34.6215 111.316 34.7522C111.312 34.7347 111.315 34.7233 111.32 34.7147C111.346 34.8485 111.43 34.8701 111.52 34.8789C111.539 34.8808 111.557 34.8827 111.575 34.8851L111.622 34.964C111.613 34.9372 111.6 34.9115 111.585 34.8868C111.631 34.8934 111.675 34.9048 111.71 34.9365C111.767 34.9817 111.806 35.0681 111.811 35.2461C111.739 35.3561 111.706 35.4602 111.698 35.5785C111.688 35.5243 111.686 35.4772 111.694 35.4514C111.542 35.5997 111.795 35.9199 111.508 35.7225C111.502 35.616 111.48 35.6522 111.445 35.6867C111.444 35.5914 111.425 35.4971 111.396 35.4026L111.44 35.3391C111.406 35.2935 111.376 35.2753 111.349 35.2667C111.334 35.2296 111.318 35.1924 111.301 35.1551C111.277 35.0936 111.252 35.0312 111.229 34.9678C111.346 35.027 111.497 35.1684 111.356 34.8178C111.316 34.7325 111.226 34.6631 111.117 34.5887C111.099 34.4929 111.092 34.3963 111.098 34.3001ZM93.7248 11.3647C93.7383 11.3822 93.7521 11.3991 93.7661 11.4156C93.7659 11.4159 93.7659 11.4163 93.7657 11.4169C93.7627 11.4255 93.7596 11.4339 93.7564 11.4424C93.71 11.4298 93.68 11.4714 93.6486 11.5112C93.6463 11.5093 93.6443 11.508 93.6422 11.5065C93.6342 11.4823 93.6262 11.4581 93.6157 11.4319C93.623 11.4122 93.6286 11.3872 93.6331 11.3604C93.6364 11.3434 93.6402 11.3259 93.6439 11.3089L93.7248 11.3647ZM110.866 11.6119C110.869 11.6115 110.873 11.6111 110.876 11.6109L110.896 11.7036C110.895 11.7039 110.894 11.7043 110.893 11.7045C110.853 11.7058 110.825 11.6947 110.836 11.6441L110.862 11.6136C110.863 11.6132 110.864 11.6122 110.866 11.6119ZM117.958 26.1615C117.933 26.1428 117.91 26.122 117.89 26.095C117.885 26.0867 117.881 26.0781 117.878 26.0693L117.94 26.0496C117.941 26.0893 117.948 26.1263 117.958 26.1615ZM120.085 25.7104C120.084 25.71 120.083 25.71 120.082 25.7098C120.072 25.7355 120.062 25.7612 120.053 25.7862L120.056 25.7063C120.024 25.7014 119.994 25.698 119.968 25.6963C119.964 25.6885 119.959 25.681 119.955 25.6731C119.984 25.6798 120.017 25.6847 120.057 25.6992L120.063 25.5471C120.01 25.5505 119.965 25.5467 119.928 25.5428L119.992 25.4224L119.997 25.4211C120.019 25.4286 120.025 25.4546 119.99 25.545L120.162 25.4201C120.165 25.4235 120.17 25.4269 120.174 25.4301C120.157 25.516 120.119 25.6131 120.082 25.7091C120.083 25.7097 120.084 25.7098 120.085 25.7104ZM123.024 32.9446L123.004 32.9945C122.964 32.9842 122.924 32.9692 122.885 32.946C122.86 32.924 122.843 32.8974 122.83 32.8685C122.83 32.8685 122.83 32.8685 122.831 32.8687C122.865 32.919 122.944 32.9681 123.024 32.9446ZM125.046 32.5306C125.044 32.5293 125.042 32.5282 125.039 32.5271L125.055 32.5254C125.052 32.528 125.049 32.5282 125.046 32.5306ZM125.348 34.2238C125.347 34.2225 125.346 34.221 125.345 34.2197L125.45 34.2172C125.43 34.2243 125.412 34.232 125.395 34.2401C125.378 34.2311 125.362 34.2255 125.348 34.2238ZM125.079 34.3085C125.114 34.3202 125.144 34.3269 125.169 34.3284C125.121 34.3571 125.057 34.3742 124.957 34.3473C124.968 34.3346 124.976 34.3222 124.982 34.31C125.013 34.305 125.046 34.3055 125.079 34.3085ZM125.138 34.3173C125.125 34.3158 125.114 34.3128 125.103 34.3104C125.115 34.3123 125.126 34.3149 125.138 34.3173ZM124.75 33.9712C124.768 33.9746 124.785 33.9795 124.803 33.984C124.793 33.9862 124.783 33.987 124.773 33.9888C124.765 33.9828 124.758 33.977 124.75 33.9712ZM112.466 36.6448C112.431 36.6062 112.396 36.5653 112.362 36.5244C112.354 36.4052 112.348 36.2762 112.374 36.2198C112.396 36.3953 112.438 36.5743 112.59 36.732C112.496 36.6077 112.417 36.3894 112.563 36.4339C112.647 36.5076 112.675 36.66 112.665 36.7543L112.689 36.7133C112.709 36.7843 112.73 36.8561 112.752 36.9281C112.753 36.9398 112.753 36.9514 112.755 36.9628C112.652 36.8494 112.56 36.7481 112.466 36.6448ZM111.559 34.8517C111.561 34.8418 111.561 34.832 111.562 34.8219C111.599 34.8298 111.638 34.8026 111.677 34.7739C111.649 34.8176 111.613 34.8497 111.566 34.8609C111.564 34.8577 111.561 34.8547 111.559 34.8517ZM111.559 34.8574L111.562 34.8624C111.56 34.8628 111.559 34.8637 111.558 34.8639C111.558 34.8619 111.558 34.8596 111.559 34.8574ZM93.7668 11.4129L93.7384 11.3741L93.7713 11.3968C93.7698 11.4022 93.7683 11.4077 93.7668 11.4129ZM101.341 11.4341C101.324 11.3792 101.306 11.3244 101.29 11.2693C101.258 11.0062 101.234 10.7004 101.23 10.4387C101.245 10.3271 101.261 10.2159 101.281 10.1055L101.252 10.0427C101.28 9.86153 101.337 9.78802 101.438 9.92247C101.208 10.0832 101.329 11.0113 101.341 11.4341ZM101.618 12.2034C101.634 12.1496 101.647 12.0887 101.652 12.0103C101.646 11.9241 101.641 11.8266 101.639 11.7034C101.658 11.8354 101.657 11.9282 101.652 12.0103C101.664 12.174 101.68 12.2783 101.677 12.3399C101.657 12.2944 101.637 12.249 101.618 12.2034ZM110.762 11.7487C110.762 11.7476 110.762 11.7469 110.762 11.7457L110.765 11.748C110.764 11.7482 110.763 11.7484 110.762 11.7487ZM115.304 26.5746C115.298 26.5784 115.293 26.5823 115.287 26.5862C115.276 26.5847 115.266 26.5834 115.256 26.5819C115.262 26.5703 115.267 26.5589 115.274 26.5474C115.276 26.5469 115.277 26.5465 115.279 26.5457C115.287 26.5545 115.295 26.5635 115.304 26.5746ZM119.914 25.617C119.927 25.6195 119.938 25.6232 119.951 25.6247L119.966 25.6467C119.954 25.645 119.944 25.642 119.933 25.6403C119.927 25.6322 119.921 25.6247 119.914 25.617ZM107.248 17.6058C107.248 17.6058 107.248 17.6056 107.248 17.6056C107.248 17.6056 107.248 17.6056 107.248 17.6056C107.248 17.6056 107.248 17.6056 107.248 17.6058ZM105.325 20.2747C105.314 20.2591 105.327 20.2466 105.346 20.2344C105.357 20.2477 105.366 20.2668 105.373 20.2934L105.367 20.3047C105.353 20.2972 105.339 20.288 105.325 20.2747ZM119.883 25.2878C119.874 25.2724 119.869 25.2593 119.868 25.2476V25.2469C119.867 25.2383 119.869 25.2311 119.872 25.2242C119.893 25.221 119.914 25.2281 119.935 25.249C119.939 25.2563 119.944 25.2656 119.95 25.2754C119.95 25.2788 119.952 25.2825 119.95 25.2855C119.929 25.2915 119.908 25.2941 119.883 25.2878ZM119.462 25.6898C119.483 25.656 119.493 25.6178 119.5 25.5778L119.539 25.7082C119.664 25.6637 119.725 25.705 119.818 25.702C119.818 25.7038 119.819 25.7059 119.819 25.7078C119.792 25.7147 119.765 25.7235 119.736 25.734C119.646 25.7665 119.521 25.7869 119.462 25.6898ZM119.104 25.8441C119.134 25.8531 119.163 25.8643 119.184 25.8805C119.221 25.9047 119.242 25.9472 119.215 26.0127C119.169 25.962 119.129 25.8988 119.104 25.8441ZM119.231 25.6915L119.232 25.6961C119.23 25.696 119.229 25.696 119.227 25.6958C119.229 25.6943 119.23 25.693 119.231 25.6915ZM119.145 25.6348L119.158 25.6322C119.151 25.6425 119.146 25.6508 119.139 25.6637C119.142 25.6527 119.143 25.6442 119.145 25.6348ZM118.408 25.4468C118.411 25.4483 118.416 25.449 118.42 25.4503C118.412 25.4531 118.406 25.456 118.397 25.4588C118.401 25.4546 118.404 25.4509 118.408 25.4468ZM119.151 25.5994L119.167 25.5958L119.165 25.6114L119.149 25.615C119.15 25.6088 119.15 25.6045 119.151 25.5994ZM118.657 24.7738C118.659 24.7746 118.66 24.7751 118.662 24.7757C118.655 24.7772 118.649 24.7781 118.642 24.7798L118.644 24.7755C118.649 24.775 118.653 24.7744 118.657 24.7738ZM118.952 25.5949C118.94 25.5902 118.932 25.5791 118.924 25.5653C118.933 25.5709 118.942 25.576 118.952 25.5806C118.952 25.5855 118.952 25.59 118.952 25.5949ZM119.309 25.7014C119.288 25.7025 119.267 25.6995 119.247 25.6971C119.256 25.6812 119.266 25.6635 119.275 25.6448C119.29 25.6286 119.306 25.6131 119.321 25.5966L119.322 25.5964C119.315 25.6324 119.311 25.6658 119.309 25.7014ZM113.832 27.1154C113.83 27.1217 113.826 27.1283 113.823 27.1352C113.815 27.1416 113.807 27.148 113.801 27.1547C113.796 27.1566 113.792 27.1587 113.788 27.1607C113.789 27.1504 113.792 27.1386 113.793 27.1298C113.806 27.1247 113.819 27.1197 113.832 27.1154ZM113.767 26.7049L113.783 26.7015L113.782 26.7152C113.776 26.7145 113.771 26.7137 113.766 26.7126C113.767 26.7098 113.767 26.7075 113.767 26.7049ZM104.64 25.4901C104.444 25.2471 104.24 24.9585 104.061 24.6593C103.997 24.5496 103.934 24.4421 103.872 24.3353C104.134 24.7114 104.388 25.1005 104.64 25.4901ZM103.353 21.9071C103.405 21.9575 103.457 22.008 103.509 22.0586L103.398 22.1368L103.353 21.9071ZM103.518 22.068L103.401 22.151L103.4 22.1467L103.515 22.0652C103.516 22.0661 103.517 22.067 103.518 22.068ZM103.295 21.6052L103.541 21.8685C103.549 21.9167 103.557 21.9647 103.566 22.0128C103.511 21.9813 103.434 21.9227 103.341 21.8435L103.295 21.6052ZM118.154 28.8933C118.151 28.8719 118.145 28.8498 118.141 28.8278C118.138 28.783 118.136 28.7384 118.128 28.6932C118.13 28.6821 118.13 28.6705 118.13 28.6593C118.152 28.7209 118.171 28.7834 118.185 28.8458C118.186 28.855 118.187 28.864 118.188 28.873C118.177 28.8798 118.166 28.8865 118.154 28.8933ZM118.104 28.5889C118.113 28.6099 118.12 28.6315 118.128 28.6527C118.127 28.6638 118.128 28.6758 118.127 28.6864C118.121 28.6538 118.112 28.6214 118.104 28.5889ZM118.143 28.8666C118.146 28.876 118.15 28.8852 118.152 28.8948C118.15 28.8959 118.148 28.8972 118.145 28.8985C118.145 28.888 118.144 28.8771 118.143 28.8666ZM118.134 29.0519C118.139 29.0498 118.142 29.0481 118.147 29.0461C118.143 29.054 118.137 29.0605 118.133 29.0682C118.133 29.0628 118.133 29.0571 118.134 29.0519ZM104.487 23.219C104.488 23.2146 104.489 23.2102 104.49 23.2055C104.549 23.2967 104.608 23.3844 104.666 23.4686C104.666 23.4694 104.666 23.4701 104.666 23.4709C104.611 23.3961 104.551 23.3122 104.487 23.219ZM117.934 29.1233C117.941 29.1209 117.949 29.1188 117.956 29.1164C117.948 29.1288 117.94 29.1415 117.932 29.1539C117.929 29.1586 117.925 29.1625 117.921 29.167C117.925 29.1524 117.93 29.138 117.934 29.1233ZM106.951 25.5285C106.849 25.3952 106.752 25.2574 106.652 25.1224C106.73 25.1989 106.807 25.275 106.884 25.3513L106.951 25.5285ZM117.89 28.99C117.889 29.002 117.887 29.014 117.886 29.0262C117.881 29.0281 117.876 29.0307 117.871 29.033C117.878 29.0191 117.884 29.0046 117.89 28.99ZM114.254 29.4108C114.254 29.4151 114.253 29.4194 114.253 29.4235C114.253 29.4273 114.254 29.431 114.254 29.4348C114.245 29.4291 114.237 29.4237 114.227 29.4181C114.236 29.4158 114.245 29.4128 114.254 29.4108ZM117.212 28.6722C117.211 28.672 117.209 28.6718 117.208 28.6716C117.212 28.6722 117.217 28.6726 117.221 28.6728C117.218 28.6726 117.216 28.6726 117.212 28.6722ZM117.236 28.6743C117.237 28.6743 117.237 28.6743 117.237 28.6743C117.237 28.6744 117.235 28.6746 117.235 28.6746L117.236 28.6743ZM117.197 28.6842C117.197 28.6842 117.197 28.684 117.197 28.684C117.198 28.6838 117.198 28.6838 117.198 28.6838C117.197 28.684 117.197 28.6842 117.196 28.6844C117.196 28.6844 117.197 28.6842 117.197 28.6842ZM116.767 28.7429C116.801 28.7125 116.838 28.681 116.882 28.6478C116.892 28.6523 116.901 28.6568 116.91 28.6615C116.883 28.6894 116.835 28.7176 116.767 28.7429ZM116.856 28.6347C116.819 28.6619 116.78 28.6879 116.747 28.7176L116.684 28.7691C116.671 28.7723 116.658 28.7751 116.645 28.7781C116.695 28.7076 116.742 28.6454 116.788 28.6069C116.812 28.6159 116.834 28.6249 116.856 28.6347ZM117.834 29.2731C117.824 29.3045 117.813 29.3354 117.801 29.3663C117.753 29.3896 117.705 29.4119 117.659 29.4336C117.662 29.4278 117.664 29.4224 117.667 29.4168C117.694 29.3963 117.72 29.3751 117.75 29.3508C117.719 29.3663 117.7 29.3733 117.688 29.3736C117.696 29.3564 117.705 29.3386 117.713 29.3217C117.725 29.2955 117.735 29.2709 117.745 29.2454C117.761 29.222 117.78 29.1942 117.799 29.1636C117.822 29.1573 117.844 29.1509 117.867 29.144C117.858 29.1867 117.847 29.2295 117.834 29.2718C117.83 29.2763 117.827 29.2803 117.823 29.2848C117.826 29.281 117.83 29.2771 117.834 29.2731ZM118.094 28.9272C118.085 28.9325 118.074 28.9364 118.064 28.9415C118.076 28.9131 118.087 28.8826 118.097 28.8501C118.097 28.877 118.095 28.9019 118.094 28.9272ZM118.093 28.7161C118.096 28.7476 118.097 28.7789 118.098 28.8087C118.098 28.8166 118.097 28.8231 118.097 28.831C118.084 28.873 118.07 28.9113 118.054 28.9463C118.023 28.9621 117.992 28.9763 117.96 28.991C117.967 28.9411 117.972 28.8914 117.973 28.8419C117.976 28.7847 117.974 28.729 117.968 28.6743C117.995 28.6724 118.023 28.6536 118.045 28.6161C118.062 28.6489 118.079 28.6821 118.093 28.7161ZM118.068 28.5618C118.07 28.5621 118.071 28.5629 118.072 28.5634C118.077 28.5895 118.081 28.6144 118.084 28.6396C118.076 28.6201 118.07 28.6002 118.061 28.5809C118.064 28.5747 118.066 28.5687 118.068 28.5618ZM117.998 29.2617C117.97 29.2784 117.941 29.2947 117.911 29.3105C117.896 29.3189 117.88 29.327 117.864 29.335C117.884 29.2844 117.902 29.2336 117.917 29.1822C117.921 29.1768 117.926 29.1721 117.931 29.1663C117.942 29.1501 117.953 29.1306 117.965 29.1136C118.007 29.0999 118.046 29.0856 118.084 29.0714C118.08 29.1018 118.077 29.1329 118.072 29.1614C118.048 29.1961 118.024 29.23 117.998 29.2617ZM119.666 33.4792C119.651 33.4747 119.635 33.4715 119.613 33.4753L119.705 33.5287C119.706 33.5283 119.706 33.5281 119.706 33.5278C119.707 33.5287 119.708 33.5296 119.709 33.5306L119.705 33.5287C119.694 33.5379 119.684 33.5441 119.673 33.5518C119.593 33.5688 119.537 33.539 119.502 33.4878C119.542 33.4785 119.588 33.4601 119.64 33.4451C119.648 33.4561 119.657 33.4672 119.666 33.4792ZM119.893 33.6343L119.887 33.6362L119.75 33.555C119.791 33.507 119.835 33.4981 119.91 33.6131C119.904 33.621 119.899 33.6281 119.893 33.6343ZM119.105 23.4724C119.099 23.4876 119.101 23.5041 119.109 23.52C119.103 23.52 119.096 23.52 119.09 23.52C119.074 23.5144 119.054 23.5112 119.03 23.5097C119.058 23.4982 119.084 23.4861 119.105 23.4724ZM119.131 23.4495L119.16 23.4744C119.145 23.4862 119.131 23.5022 119.119 23.52C119.116 23.52 119.114 23.5202 119.111 23.5202L119.106 23.4714C119.116 23.4647 119.124 23.4572 119.131 23.4495ZM113.721 24.5779C113.715 24.5933 113.717 24.6098 113.725 24.6259C113.719 24.6259 113.713 24.6257 113.706 24.6259C113.691 24.6201 113.67 24.6169 113.646 24.6154C113.674 24.6039 113.7 24.5918 113.721 24.5779ZM113.747 24.5552L113.776 24.5801C113.761 24.5919 113.747 24.6079 113.736 24.6259C113.733 24.6259 113.73 24.6257 113.727 24.6257L113.722 24.5771C113.732 24.5704 113.74 24.5629 113.747 24.5552ZM112.283 35.7431C112.339 35.8597 112.351 35.9949 112.365 36.1352C112.313 36.0358 112.288 35.8766 112.283 35.7431ZM123.928 33.191C123.897 33.1404 123.864 33.102 123.829 33.0718C123.835 33.0731 123.842 33.0748 123.849 33.0761C123.838 33.0508 123.837 33.029 123.833 33.0065C123.87 33.0311 123.908 33.0583 123.951 33.0774C123.947 33.1095 123.942 33.1453 123.928 33.191ZM125.806 33.7599C125.776 33.7616 125.746 33.7622 125.719 33.7616C125.716 33.7492 125.712 33.7385 125.711 33.7235L125.69 33.7608C125.67 33.7599 125.651 33.7586 125.633 33.7567C125.72 33.713 125.784 33.6221 125.806 33.7599ZM125.457 34.2146L125.415 34.1246C125.479 34.0955 125.535 34.1287 125.585 34.1741C125.572 34.1805 125.558 34.1872 125.546 34.1949C125.513 34.2 125.483 34.2065 125.457 34.2146ZM111.141 34.178C111.151 34.1634 111.162 34.1499 111.174 34.1381C111.189 34.1445 111.206 34.1512 111.221 34.1576C111.221 34.1786 111.219 34.1985 111.217 34.2174C111.191 34.2041 111.166 34.1912 111.141 34.178ZM114.1 38.3642L114.128 38.4773C114.088 38.4484 114.053 38.4165 114.021 38.382C114.002 38.2624 113.93 38.1478 113.832 38.0383C113.828 38.0243 113.823 38.0097 113.82 37.996C113.912 38.118 114.005 38.2408 114.1 38.3642ZM113.712 37.6513C113.707 37.6465 113.703 37.6414 113.698 37.6363L113.734 37.5598L113.712 37.6513ZM121.72 33.9232L121.761 33.8527C121.752 33.8458 121.742 33.8417 121.732 33.8357C121.722 33.8563 121.716 33.885 121.717 33.9217C121.597 33.8679 121.485 33.7856 121.376 33.7676L121.429 33.863L121.401 33.849C121.374 33.8152 121.34 33.785 121.302 33.7565C121.438 33.7659 121.591 33.7488 121.732 33.8357C121.743 33.8122 121.761 33.7989 121.784 33.792C121.755 33.8355 121.769 33.8983 121.731 33.9283C121.728 33.9266 121.724 33.9249 121.72 33.9232ZM125.466 34.2903C125.455 34.281 125.446 34.274 125.436 34.2667C125.461 34.2564 125.485 34.2448 125.51 34.2311C125.503 34.244 125.499 34.2596 125.501 34.2789C125.489 34.284 125.478 34.2879 125.466 34.2903ZM112.455 27.1656C112.36 27.1945 112.327 27.193 112.336 27.1665C112.341 27.153 112.358 27.1326 112.384 27.1079C112.407 27.1137 112.432 27.114 112.461 27.1092C112.464 27.115 112.469 27.1212 112.475 27.1274C112.471 27.1384 112.466 27.1497 112.461 27.1635C112.46 27.1641 112.457 27.165 112.455 27.1656ZM108.475 16.2051C108.463 16.2123 108.45 16.2175 108.439 16.2203C108.462 16.1673 108.512 16.0688 108.548 16.0021C108.565 15.9897 108.582 15.9792 108.599 15.9679L108.609 15.9651C108.634 16.0171 108.598 16.0902 108.547 16.1457C108.508 16.1665 108.481 16.1858 108.475 16.2051ZM110.817 11.6659L110.769 11.7439L110.763 11.7397C110.763 11.7356 110.764 11.7315 110.764 11.7276L110.817 11.6659ZM110.548 1.14114C110.549 1.14133 110.55 1.14152 110.55 1.1417L110.542 1.19027C110.541 1.19027 110.54 1.19008 110.539 1.19008L110.548 1.14114ZM110.583 1.14733L110.575 1.19346C110.565 1.19252 110.554 1.19158 110.544 1.19064L110.552 1.14189C110.563 1.14377 110.573 1.14565 110.583 1.14733ZM106.548 18.4799C106.59 18.3781 106.666 18.3052 106.743 18.2474C106.761 18.346 106.669 18.4162 106.548 18.4799ZM108.606 16.3722C108.6 16.369 108.594 16.3656 108.588 16.3606L108.493 16.3857C108.517 16.1984 108.537 16.3122 108.588 16.3606L108.656 16.3422C108.64 16.3529 108.623 16.3626 108.606 16.3722ZM108.804 16.0799C108.804 16.1039 108.799 16.1234 108.795 16.1436C108.77 16.1059 108.747 16.0713 108.705 16.0752C108.705 16.075 108.706 16.0748 108.706 16.0744C108.729 16.075 108.75 16.0724 108.772 16.0703C108.783 16.0726 108.793 16.0744 108.804 16.0799ZM111.09 11.0585C111.09 11.0591 111.09 11.0599 111.089 11.0606L111.045 11.0372C111.046 11.0366 111.046 11.0359 111.047 11.0351L111.09 11.0585ZM111.099 11.0379C111.098 11.0405 111.097 11.043 111.096 11.0454L111.055 11.0237C111.057 11.0214 111.059 11.0194 111.06 11.0171L111.099 11.0379ZM111.384 11.1905C111.385 11.1937 111.385 11.1969 111.385 11.1999L111.337 11.174C111.337 11.1712 111.338 11.1686 111.339 11.166L111.384 11.1905ZM111.384 11.1814L111.341 11.1583C111.344 11.1429 111.349 11.1272 111.352 11.1124L111.121 10.989C111.114 11.0038 111.109 11.0167 111.102 11.031L111.064 11.0105C111.073 10.9959 111.082 10.9809 111.089 10.9663L111.389 11.127C111.385 11.1465 111.384 11.1647 111.384 11.1814ZM127.777 34.3989L127.777 34.4494L127.797 34.4587L127.797 34.4029L127.887 34.4207L127.887 34.485C127.88 34.488 127.873 34.4887 127.866 34.491L127.871 34.4932L127.852 34.5176L127.822 34.5037C127.814 34.5052 127.806 34.5054 127.798 34.506L127.797 34.4923L127.777 34.4831L127.778 34.5062C127.771 34.5062 127.766 34.5065 127.759 34.5062L127.759 34.4747L127.652 34.4252L127.658 34.419C127.676 34.4207 127.692 34.4197 127.706 34.416L127.759 34.4409L127.758 34.3953L127.777 34.3989ZM127.796 34.3672L127.8 34.3736L127.797 34.3753L127.796 34.3672ZM127.897 34.6339L127.897 34.6162C127.907 34.6271 127.916 34.6382 127.924 34.6513C127.915 34.6449 127.906 34.64 127.897 34.6339ZM127.994 34.4117C127.927 34.3817 127.862 34.3603 127.796 34.3488L127.791 33.8169C127.785 33.8193 127.778 33.8216 127.772 33.8238L127.776 34.3367L127.783 34.3473C127.781 34.347 127.779 34.3468 127.776 34.3466L127.777 34.3841L127.758 34.392L127.758 34.3445C127.754 34.3442 127.751 34.3436 127.748 34.3432C127.746 34.3232 127.742 34.2993 127.731 34.2688L127.758 34.3087L127.754 33.8302C127.599 33.8844 127.464 33.9377 127.197 33.9155C127.458 33.8025 127.545 33.7967 127.752 33.6913L127.751 33.5596C127.539 33.5812 127.34 33.5649 127.142 33.5716L127.213 31.7456C126.892 31.7103 126.615 31.5796 126.275 31.7086C126.301 31.7851 126.415 31.8361 126.297 31.913C126.216 31.7467 125.862 31.9126 125.94 31.7208C125.793 31.7842 125.759 31.9634 125.67 31.9886L125.2 31.7454L125.213 31.7836C124.37 32.2173 123.7 31.4621 122.868 31.6402L122.879 31.7426L122.681 31.5888C122.837 31.6914 122.604 31.7163 122.587 31.8057L122.072 31.5751C122.056 31.6647 122.076 31.8693 122.207 31.8312C122.002 31.9331 121.806 31.7159 121.633 31.7024L121.687 31.7924L121.516 31.7152L121.511 31.8431C121.224 31.7789 120.856 31.9062 120.761 31.7013L120.784 31.9062L120.485 31.7396L120.654 31.8804C120.48 31.8991 120.265 31.8671 120.083 31.8303C120.232 31.6863 120.378 31.5237 120.511 31.3492C120.78 31.0042 120.973 30.5889 121.093 30.2425C121.09 30.2412 121.087 30.238 121.084 30.2358C121.09 30.2275 121.097 30.2176 121.103 30.209C121.1 30.2202 121.096 30.2315 121.093 30.2425C121.124 30.2485 121.157 30.2007 121.173 30.113C121.185 30.0953 121.197 30.0807 121.209 30.0622C121.233 29.9498 121.259 29.8433 121.269 29.7277C121.228 29.8447 121.162 29.968 121.091 30.1072C121.077 30.131 121.061 30.1555 121.046 30.1801C121.039 30.1638 121.033 30.1456 121.027 30.1227C121.014 30.0682 121.008 29.9941 120.997 29.899C121.194 29.5836 121.352 29.2263 121.394 28.8259C121.402 28.7187 121.415 28.6128 121.398 28.4997L121.38 28.3326C121.368 28.2781 121.351 28.2244 121.336 28.1703C121.291 28.0017 121.209 27.8457 121.112 27.7024C121.085 27.6578 121.058 27.6141 121.027 27.5723C121.045 27.5136 121.112 27.5408 121.21 27.628C121.235 27.6509 121.263 27.6777 121.291 27.7079C121.316 27.7411 121.342 27.7784 121.368 27.8185C121.421 27.8987 121.478 27.9891 121.512 28.0945C121.552 28.1973 121.589 28.3047 121.6 28.4142C121.619 28.5229 121.634 28.6289 121.628 28.7172C121.627 28.8072 121.628 28.8886 121.624 28.9505C121.617 29.011 121.614 29.0555 121.616 29.0776C121.646 28.9448 121.645 28.798 121.646 28.6538C121.649 28.5828 121.63 28.5031 121.62 28.4283C121.607 28.3525 121.598 28.2758 121.568 28.2036C121.484 27.9027 121.295 27.6421 121.086 27.427C120.998 27.3447 120.905 27.2723 120.81 27.2052C120.876 27.096 120.862 27.0029 120.808 26.9232C121.066 26.707 121.278 26.5052 121.454 26.2945L121.704 25.9948L121.596 25.4809L121.246 26.1829C121.203 26.2695 121.169 26.3548 121.102 26.475C121.041 26.5838 120.962 26.7282 120.802 26.9136C120.784 26.8894 120.763 26.8665 120.739 26.8452C120.785 26.7981 120.819 26.7443 120.833 26.6809C120.761 26.7126 120.688 26.7359 120.614 26.7563C120.607 26.7518 120.6 26.7473 120.592 26.743C120.663 26.7064 120.727 26.668 120.777 26.6258C120.849 26.5701 120.902 26.514 120.944 26.4576C121.033 26.3464 121.077 26.2429 121.148 26.13L121.479 25.6L121.186 25.2145C121.158 25.1771 121.138 25.1275 121.134 25.0504C121.21 25.0978 121.249 25.132 121.289 25.1625L121.575 25.3825L121.506 25.0532C121.474 24.8995 121.467 24.7429 121.281 24.6548C121.217 24.7074 121.204 24.7914 121.095 24.771C121.228 24.6444 120.963 24.5492 121.168 24.4909C121.064 24.4485 120.883 24.5229 120.833 24.4903L120.92 24.1269L120.887 24.1532C120.221 23.9466 120.731 23.2189 120.309 22.8868L120.216 22.9445L120.301 22.7651C120.251 22.8969 120.157 22.7914 120.067 22.8285L120.128 22.4484C120.038 22.4859 119.851 22.6009 119.927 22.6481C119.768 22.5958 119.914 22.3852 119.874 22.29L119.806 22.3638L119.826 22.2371L119.704 22.2999C119.698 22.2572 119.679 22.2174 119.658 22.1799L117.453 22.7535C117.457 22.8902 117.501 23.0225 117.335 23.0773L117.555 23.0479L117.383 23.2369L117.531 23.1266C117.566 23.2723 117.489 23.4769 117.444 23.5965C117.43 23.6104 117.422 23.6276 117.426 23.6479C117.419 23.6668 117.414 23.6824 117.415 23.6893L117.496 23.6674C117.497 23.6679 117.497 23.6683 117.497 23.6689C117.476 23.6917 117.453 23.7142 117.435 23.736L117.48 23.7403C117.472 23.7478 117.465 23.7555 117.459 23.7636L117.529 23.7452L117.582 23.7504C117.582 23.7604 117.583 23.769 117.583 23.7786C117.525 23.8821 117.576 24.0135 117.452 24.1399C117.543 24.1671 117.496 24.2469 117.445 24.3495C117.39 24.4494 117.33 24.5745 117.375 24.6559C117.34 24.7238 117.553 24.4973 117.559 24.6758C117.204 24.7474 117.58 24.9107 117.204 24.9955C117.262 25.0455 117.318 25.0928 117.379 25.1404L117.201 25.225C117.396 25.2578 117.372 25.3204 117.328 25.4113C117.316 25.4331 117.303 25.4565 117.292 25.4813C117.273 25.4584 117.235 25.4415 117.162 25.4355C117.215 25.4689 117.261 25.4618 117.248 25.5251C116.881 25.4185 117.113 25.7397 116.889 25.6902C116.917 25.743 116.841 25.7985 116.758 25.8173C116.787 25.6495 116.689 25.5403 116.565 25.455C116.44 25.3729 116.29 25.3088 116.229 25.2131L116.23 25.218L115.889 25.0898C115.96 25.1168 115.885 25.2071 115.788 25.2516L115.804 25.2486C115.701 25.3103 115.94 25.6061 115.628 25.5349C115.58 25.5107 115.531 25.4861 115.481 25.4627L115.536 25.2326L115.504 25.2587C114.837 25.0523 115.347 24.3244 114.925 23.9923L114.832 24.0502L114.917 23.8708C114.868 24.0026 114.773 23.8972 114.683 23.9342L114.745 23.5541C114.655 23.5916 114.468 23.7066 114.544 23.754C114.385 23.7015 114.53 23.4909 114.49 23.3957L114.422 23.4696L114.443 23.3428L114.32 23.4058C114.314 23.3629 114.296 23.3231 114.274 23.2856L112.069 23.8592C112.073 23.9959 112.117 24.1283 111.951 24.183L112.172 24.1536L111.999 24.3426L112.147 24.2323C112.183 24.378 112.106 24.5826 112.061 24.7022C112.046 24.7159 112.038 24.7333 112.042 24.7536C112.035 24.7725 112.03 24.7881 112.031 24.795L112.113 24.7731C112.113 24.7734 112.113 24.774 112.114 24.7746C112.092 24.7974 112.069 24.82 112.051 24.8417L112.096 24.846C112.088 24.8535 112.081 24.8612 112.075 24.8693L112.145 24.8509L112.198 24.8561C112.198 24.8661 112.199 24.8747 112.199 24.8843C112.141 24.988 112.192 25.1194 112.068 25.2458C112.159 25.2728 112.112 25.3526 112.061 25.4552C112.006 25.5551 111.946 25.6802 111.991 25.7616C111.956 25.8293 112.169 25.603 112.175 25.7815C111.82 25.8531 112.196 26.0164 111.821 26.1012C111.839 26.1167 111.857 26.131 111.875 26.1462C111.594 26.283 111.311 26.4458 111.041 26.6569C110.328 25.8175 109.506 24.8717 108.485 23.7362C107.861 23.103 108.024 23.2873 108.337 23.6377C108.651 23.9878 109.104 24.5141 109.088 24.5445C108.905 24.3818 108.676 24.1521 108.43 23.8926C108.181 23.6364 107.914 23.3507 107.661 23.0735C107.563 22.9691 107.468 22.8667 107.376 22.7662L106.563 21.7292C106.579 21.6686 106.598 21.6084 106.613 21.5512C106.537 21.5853 106.501 21.6646 106.413 21.6588C106.311 21.5456 106.531 21.528 106.403 21.4269L106.303 21.5004C106.343 21.4828 106.353 21.4633 106.371 21.4878C106.445 21.5182 106.369 21.5518 106.301 21.5658C106.155 21.549 106.231 21.3988 106.32 21.3498C106.278 21.1905 106.067 21.3472 106.019 21.3166C106.129 21.2576 106.127 21.1867 106.104 21.1132C106.082 21.0405 106.045 20.9632 106.103 20.9064L105.95 20.9829C105.774 20.8483 105.921 20.7157 105.983 20.6383L105.887 20.66C105.939 20.5464 105.987 20.4277 106.022 20.2983L106.288 20.2479L106.143 20.1766C106.146 20.1603 106.15 20.1466 106.154 20.1346L106.221 20.0741C106.296 20.0709 106.396 20.1731 106.436 20.0739C106.409 20.1269 106.389 20.1069 106.346 20.1018C106.646 19.9244 106.281 19.9036 106.401 19.7832C106.23 19.7814 106.205 19.9745 106.08 19.9149C106.169 19.8202 106.273 19.8622 106.313 19.6526L106.256 19.6683C106.417 19.4891 106.554 19.3064 106.817 19.3923C106.87 19.1305 107.033 18.8827 107.217 18.6577C107.397 18.4308 107.598 18.2264 107.727 18.0458C107.696 17.9643 107.66 18.0545 107.623 18.0108C107.808 17.9791 107.822 17.7569 107.855 17.6217C107.876 17.5915 107.895 17.5587 107.914 17.5205C107.928 17.516 107.945 17.5173 107.966 17.5276C107.965 17.5026 107.956 17.4777 107.944 17.4537C107.948 17.4436 107.952 17.435 107.957 17.4245L107.931 17.4346C107.915 17.4085 107.897 17.3847 107.878 17.3628C107.9 17.309 107.929 17.2593 107.964 17.2135C108.041 17.1646 108.109 17.105 108.171 17.0378L108.069 17.0993C108.106 17.0637 108.145 17.029 108.185 16.9956L108.196 16.9891L108.204 16.9994C108.223 16.9786 108.241 16.9561 108.259 16.9341C108.358 16.853 108.452 16.7729 108.511 16.6808C108.501 16.7736 108.559 16.8267 108.613 16.8108C108.684 16.6156 108.779 16.4343 108.883 16.2559C108.918 16.2344 108.954 16.2136 108.993 16.1963C108.958 16.2109 108.931 16.2145 108.907 16.2141C108.957 16.1301 109.009 16.0463 109.062 15.9623C109.224 15.8472 109.343 15.6636 109.438 15.496C109.415 15.4836 109.397 15.4696 109.379 15.4564C109.397 15.4257 109.414 15.3931 109.432 15.3617L109.499 15.3353L109.453 15.3242C109.486 15.2654 109.518 15.2055 109.549 15.144C109.669 15.0342 109.83 14.9504 109.941 14.8589L109.948 14.8564L109.946 14.8549C110.018 14.7951 110.067 14.7315 110.069 14.6549C110.103 14.6616 110.136 14.6507 110.169 14.5864C110.123 14.667 110.107 14.6404 110.061 14.6391C110.396 14.3815 110.145 14.3627 110.18 14.2408C110.226 14.2011 110.275 14.1617 110.332 14.1231C110.307 14.1246 110.282 14.1205 110.261 14.1081C110.282 14.0352 110.401 14.0072 110.479 13.9684L110.429 13.9322C110.475 13.8619 110.507 13.7738 110.538 13.6943C110.591 13.6337 110.652 13.5758 110.751 13.5463C110.748 13.5415 110.747 13.5368 110.745 13.5321C110.756 13.5334 110.767 13.5347 110.779 13.5375C110.769 13.54 110.761 13.5435 110.751 13.5463C110.765 13.5662 110.789 13.587 110.827 13.609L110.783 13.5383C110.785 13.5388 110.787 13.5386 110.79 13.5392C110.792 13.5323 110.795 13.5251 110.798 13.5182C110.804 13.5212 110.81 13.5223 110.817 13.5261L110.802 13.507C110.816 13.4666 110.834 13.4265 110.85 13.3864C110.859 13.3808 110.868 13.3753 110.878 13.3699C110.919 13.3778 110.95 13.3976 110.943 13.4404L111.006 13.2994C111.095 13.2488 111.177 13.1918 111.198 13.12C111.243 13.099 111.156 13.1102 111.097 13.095L111.101 13.0862C111.095 13.0871 111.087 13.0881 111.08 13.0892C111.046 13.075 111.032 13.0465 111.084 12.9868C111.388 13.156 111.263 12.7804 111.58 12.9763L111.584 12.7584L111.761 12.8321C111.622 12.5974 111.841 12.6579 111.986 12.6084L111.59 12.3459C111.596 12.3306 111.602 12.3154 111.608 12.2996L111.504 12.2308C111.709 11.9272 111.91 11.6404 112.05 11.3871L110.517 10.5677C110.512 10.5739 110.507 10.5795 110.502 10.5847C110.497 10.695 110.582 10.5701 110.603 10.6284C110.497 10.6526 110.414 10.7332 110.346 10.8307L110.22 10.7555C110.215 10.7685 110.21 10.7818 110.206 10.7947L109.783 10.5407C109.351 11.1898 108.563 11.5852 108.232 12.3388L108.337 12.3746L108.049 12.5169C108.258 12.396 108.115 12.6578 108.186 12.7176L107.599 13.1655C107.671 13.2246 107.879 13.2966 107.937 13.138C107.886 13.4057 107.54 13.5163 107.403 13.6971L107.527 13.6795L107.331 13.8287L107.422 13.8782C107.386 13.9232 107.356 13.9746 107.332 14.0333C107.262 14.1285 107.2 14.2302 107.138 14.3228C107.134 14.3173 107.129 14.3123 107.124 14.3052C107.12 14.3211 107.119 14.3368 107.119 14.3526C107.014 14.508 106.91 14.6299 106.775 14.6344L106.887 14.6712C106.865 14.7042 106.845 14.739 106.826 14.776C106.784 14.7912 106.742 14.806 106.7 14.8217L106.741 14.8354C106.739 14.848 106.735 14.8587 106.732 14.8709L106.613 14.9494L106.726 14.8975C106.71 14.9684 106.689 15.0347 106.66 15.0947C106.553 15.18 106.463 15.2654 106.408 15.3572C106.392 15.3548 106.377 15.3531 106.36 15.3464L106.389 15.3901C106.379 15.4114 106.37 15.4332 106.364 15.4555C106.381 15.4416 106.395 15.4307 106.41 15.4201L106.411 15.4223C106.407 15.4272 106.403 15.4317 106.398 15.4364C106.349 15.4806 106.297 15.5221 106.242 15.5626C106.21 15.5573 106.19 15.5378 106.202 15.4917L106.128 15.6445C106.109 15.658 106.09 15.6715 106.071 15.6848C105.912 15.7924 105.749 15.9012 105.604 16.0289C105.462 16.1635 105.332 16.3126 105.267 16.5053L105.369 16.5447L105.12 16.6354C105.299 16.5544 105.201 16.7558 105.277 16.8093C105.269 16.8147 105.261 16.8205 105.254 16.8258C105.233 16.8269 105.215 16.8301 105.201 16.8365C105.207 16.8421 105.211 16.8466 105.216 16.8518C105.078 16.9456 104.941 17.0408 104.803 17.141C104.818 17.1505 104.838 17.1605 104.861 17.1695C104.756 17.2176 104.64 17.2501 104.656 17.3995C104.704 17.4258 104.752 17.4338 104.789 17.462C104.746 17.4929 104.705 17.5246 104.666 17.5572C104.647 17.5625 104.623 17.5544 104.579 17.5101C104.583 17.5366 104.601 17.567 104.622 17.5971C104.577 17.641 104.539 17.6862 104.517 17.7335C104.445 17.7785 104.613 17.7218 104.662 17.7567L104.407 17.7535L104.442 17.7732C104.451 17.8049 104.456 17.8336 104.458 17.8598C104.437 17.8651 104.417 17.8728 104.4 17.8848L104.455 17.9213C104.44 18.035 104.354 18.0899 104.244 18.1261C104.199 17.9855 104.143 17.8396 104.082 17.6947C103.919 17.2977 103.726 16.9053 103.661 16.6066L103.666 17.0204C103.604 16.9332 103.549 16.8455 103.498 16.7581C103.486 16.54 103.453 16.2936 103.339 16.0015C103.309 16.0609 103.324 16.1637 103.284 16.1224C103.249 15.8095 103.115 15.1056 103.336 15.625C103.272 15.3771 103.183 14.8206 103.102 14.4274C103.032 14.0327 102.963 13.8 102.928 14.2041C102.979 14.1662 103.006 14.3288 103.033 14.5384C103.06 14.748 103.077 15.0068 103.088 15.1635C102.919 15.1574 102.825 14.3864 102.622 14.2264C102.636 14.1985 102.647 14.0922 102.662 14.0145L102.542 13.9223C102.565 12.934 102.338 11.9661 102.524 11.2401C102.471 11.2039 102.423 11.0372 102.418 10.7032L102.625 10.6747C102.601 10.334 102.604 9.99184 102.592 9.6504L102.3 10.146C102.254 9.57952 102.333 9.09164 102.429 8.6347C102.531 8.17644 102.642 7.74743 102.712 7.30249C102.551 7.18005 102.622 6.73642 102.745 6.25116C102.863 5.76047 103.045 5.24802 103.021 4.86308L102.873 5.17096L102.822 5.28965L102.79 5.31908C102.848 5.13777 102.899 4.97689 102.946 4.83439C103.032 4.75695 103.12 4.67632 103.209 4.59195C103.166 4.77908 103.126 5.0037 103.093 5.28027C103.081 5.28458 103.069 5.28833 103.057 5.29264C102.979 5.36071 103.153 5.46421 103.538 5.12408C103.396 5.17227 103.249 5.22383 103.101 5.27727C103.176 4.92045 103.289 4.60132 103.429 4.31688C103.474 4.30507 103.519 4.294 103.564 4.28125C103.799 4.22088 104.052 4.132 104.481 3.80725C104.403 3.81381 104.324 3.82075 104.248 3.83406C104.503 3.63605 104.77 3.61206 104.811 3.63962C104.808 3.62443 104.808 3.6083 104.816 3.59143C104.918 3.53818 104.919 3.51118 104.923 3.47555C105.108 3.33811 105.494 3.18155 105.941 3.06699C106.604 2.88454 107.374 2.81367 107.79 2.60029C107.929 2.65073 108.134 2.70117 108.36 2.76154C108.54 2.81985 108.785 2.92073 109.034 3.01767C109.283 3.11536 109.544 3.20986 109.783 3.27568C110.022 3.34168 110.24 3.37711 110.388 3.37486C110.823 3.32949 110.636 3.24961 110.42 3.1598C110.202 3.06736 109.953 2.94361 110.115 2.88454C110.393 2.94942 110.595 3.03642 110.86 3.08799C110.993 3.11423 111.145 3.12417 111.328 3.09098C111.421 3.06605 111.52 3.03342 111.606 2.98092C111.651 2.95917 111.697 2.92636 111.743 2.88923C111.79 2.85717 111.833 2.80842 111.875 2.75629C111.921 2.77935 111.868 2.9213 111.744 3.05405C111.681 3.11274 111.623 3.17892 111.533 3.23611C111.486 3.26424 111.44 3.29199 111.397 3.31805C111.352 3.34355 111.313 3.35818 111.275 3.37712C111.12 3.45137 111.04 3.48512 111.134 3.51981C111.183 3.53349 111.286 3.54024 111.466 3.51249C111.513 3.50162 111.566 3.4883 111.623 3.47161C111.65 3.46318 111.683 3.45418 111.71 3.44405C111.734 3.43355 111.759 3.42287 111.786 3.41143C111.84 3.38686 111.893 3.36624 111.958 3.3293C112.026 3.28599 112.095 3.24567 112.172 3.18286C112.219 3.11348 112.26 3.04467 112.295 2.97398C112.331 2.88829 112.36 2.8041 112.375 2.71861C112.342 2.80467 112.291 2.91061 112.231 2.98917C112.172 3.06342 112.096 3.15174 112.028 3.20049C111.993 3.22918 111.955 3.25768 111.916 3.28543C111.879 3.31093 111.845 3.32799 111.807 3.34861C111.77 3.3683 111.732 3.38743 111.694 3.40524C111.651 3.42324 111.597 3.43918 111.548 3.45324C111.497 3.46355 111.454 3.47012 111.419 3.47405C111.386 3.47556 111.361 3.4733 111.342 3.47143C111.303 3.46693 111.288 3.45924 111.291 3.44949C111.299 3.42662 111.368 3.41124 111.476 3.35855C111.526 3.33418 111.59 3.3083 111.64 3.27868C111.686 3.24867 111.733 3.21793 111.777 3.18924C111.864 3.12924 111.942 3.05104 111.962 3.02086C112.007 2.98298 112.051 2.93705 112.093 2.89261C112.136 2.84967 112.172 2.78067 112.206 2.72217C112.24 2.66235 112.255 2.58567 112.271 2.51591C112.283 2.4456 112.277 2.37772 112.272 2.30891C112.228 2.04697 112.1 1.89415 111.988 1.75934C111.752 1.49908 111.5 1.3279 111.245 1.16552C111.247 1.04683 111.479 1.12427 111.732 1.27765C111.794 1.31646 111.859 1.36164 111.92 1.40458C111.983 1.45502 112.042 1.49946 112.096 1.54859C112.15 1.6009 112.198 1.64271 112.237 1.68378C112.277 1.72709 112.307 1.7584 112.325 1.77115C112.16 1.5574 111.985 1.42446 111.81 1.31008C111.635 1.19608 111.457 1.10102 111.277 1.01889C111.06 0.918388 110.84 0.83326 110.62 0.755074L110.629 0.701447C110.628 0.70126 110.628 0.70126 110.627 0.701073L110.618 0.754322C110.617 0.754135 110.616 0.753761 110.615 0.753387L110.624 0.700699C110.545 0.687199 110.457 0.67651 110.364 0.667324C110.304 0.647263 110.243 0.62701 110.183 0.607697C109.817 0.49107 109.454 0.388317 109.103 0.288002C108.926 0.237564 108.752 0.188251 108.582 0.140064C108.409 0.0913124 108.244 0.0427513 108.05 0C108.095 0.0326271 108.138 0.0637512 108.176 0.0969391C108.08 0.0701256 107.977 0.050251 107.881 0.039753C107.166 -0.0191231 106.961 0.124687 106.78 0.211128C106.688 0.260815 106.6 0.295502 106.454 0.325504C106.308 0.353443 106.104 0.36544 105.769 0.385693C105.43 0.52013 105.515 0.555195 105.549 0.593071C105.566 0.612946 105.573 0.635822 105.513 0.677635C105.454 0.720947 105.327 0.775513 105.089 0.887264C104.82 1.01176 104.941 0.87114 104.979 0.824078C104.367 1.07721 104.284 1.22083 104.193 1.31233C104.147 1.36015 104.105 1.4059 104.007 1.47396C103.907 1.54052 103.753 1.62996 103.494 1.79234C103.609 1.78503 103.727 1.78559 103.841 1.78784C103.566 1.9656 103.285 2.15834 103.028 2.38035C102.969 2.40941 102.909 2.4381 102.85 2.46866C102.852 2.48535 102.861 2.50054 102.874 2.51442C102.778 2.60123 102.685 2.69142 102.589 2.78067C102.469 2.91154 102.34 3.04036 102.232 3.17949C102.232 3.18042 102.231 3.18118 102.231 3.18192C101.914 3.38405 101.622 3.60118 101.381 3.83087L101.645 3.703C101.431 3.86612 101.234 4.04688 101.034 4.228L101.145 4.29944C100.691 4.76857 100.3 5.38284 100.023 5.93222C99.7393 6.48085 99.5739 6.96555 99.3965 7.16786L99.6543 7.07449C99.4643 7.4853 99.3172 7.90475 99.1984 8.33807C99.2879 8.09206 99.3679 7.84962 99.4824 7.61449C99.3296 8.33525 99.2334 9.25027 99.2567 10.0074C99.2765 10.7638 99.3606 11.3655 99.3957 11.5074L99.449 11.369C99.5418 11.5789 99.5218 11.7666 99.5567 11.9981C99.578 11.9389 99.5993 11.8802 99.6227 11.8207C99.618 12.0319 99.616 12.2408 99.6201 12.4446C99.6318 13.1785 99.7116 13.8512 99.9053 14.3168C99.8019 13.7083 99.8846 13.686 99.9765 13.6063C100.072 14.1368 100.197 14.6397 100.334 15.1626C100.472 15.6854 100.626 16.2259 100.801 16.8214C100.797 16.7523 100.804 16.7043 100.826 16.6941C100.967 16.9883 101.036 17.377 101.127 17.6969L101.299 17.6785C101.324 17.7676 101.356 17.8593 101.39 17.9523L101.444 18.8137C101.114 18.6035 100.865 18.4387 100.795 18.3895L100.826 18.5007C100.663 18.4492 100.582 18.3395 100.452 18.2309L100.494 18.3946C99.9578 18.053 99.5723 17.831 99.205 17.6095C99.1584 17.5386 99.1093 17.4702 99.0604 17.4008C99.0112 17.3268 98.9591 17.254 98.9023 17.1831C98.709 17.2197 98.479 16.9424 98.2537 16.5981C98.0119 16.2644 97.7846 15.8631 97.4659 15.6899C97.5496 15.8612 97.6402 16.0294 97.7276 16.201C97.0608 15.1808 96.7769 15.1075 96.3463 14.049C96.6138 14.4559 96.7531 14.6554 96.9321 14.8962C96.977 14.9562 97.0237 15.019 97.0782 15.0863C97.1369 15.1512 97.201 15.222 97.2738 15.3027C97.422 15.4615 97.6021 15.6591 97.8739 15.8961C97.3923 15.3771 97.1247 14.8317 96.871 14.3095C96.6368 13.7751 96.4165 13.261 96.0976 12.7078C96.0503 12.8138 96.115 13.1318 95.9239 12.8702C95.9657 12.7221 95.848 12.447 95.7737 12.2143C95.7014 11.9811 95.6487 11.7992 95.7776 11.8584C95.5852 11.5084 95.3918 11.4879 95.3001 11.2603C95.2651 10.8817 95.2778 10.4987 95.2726 10.1246L95.0159 10.1717C95.0133 10.3277 94.9537 10.4692 94.9309 10.5967C94.929 10.6292 94.9289 10.6584 94.9225 10.6959C94.9216 10.6642 94.9249 10.6299 94.9309 10.5967C94.9416 10.4237 94.8945 10.308 94.853 10.2015L94.4543 10.2744C94.4542 10.2737 94.454 10.2729 94.4538 10.2724L94.8523 10.1994C94.8521 10.199 94.8519 10.1985 94.8517 10.1981L94.4534 10.2708C94.4528 10.2675 94.4515 10.2637 94.451 10.2603L93.5789 10.4199C93.5796 10.4235 93.58 10.427 93.5808 10.4306L93.1821 10.5035C93.1823 10.5041 93.1823 10.5045 93.1825 10.5049L93.581 10.4321C93.5811 10.4328 93.5811 10.4334 93.5811 10.4342L93.1834 10.5069C93.2253 10.6138 93.2598 10.7111 93.243 10.838C93.2019 10.7317 93.164 10.6245 93.1296 10.5169L93.0184 10.5371C93.0184 10.5365 93.0183 10.5356 93.0183 10.535L93.1289 10.5148C93.0237 10.1844 92.9448 9.85197 92.866 9.54896L92.5634 9.6774L92.7718 10.0728C92.7636 10.0608 92.7569 10.0498 92.7472 10.0368L92.7703 10.1025C92.6353 9.95734 92.4854 9.90128 92.426 9.73553L92.3911 9.75034C92.3872 9.74265 92.3834 9.73515 92.3795 9.72746L92.4174 9.71152C92.4163 9.70759 92.4145 9.70478 92.4135 9.70084L92.3745 9.71734C92.3635 9.69503 92.3509 9.67346 92.3405 9.65059L91.4962 10.0087C91.5028 10.0329 91.5078 10.0578 91.5136 10.0824L91.4863 10.0938C91.4878 10.097 91.489 10.1012 91.4903 10.1045L91.5162 10.0935C91.5183 10.1019 91.5203 10.1103 91.5222 10.1188L91.499 10.1285C91.5239 10.1979 91.5394 10.2855 91.5416 10.404L91.3741 10.1816L91.0651 10.3127C91.2543 10.7126 91.4335 11.0713 91.6601 11.3079C91.4353 10.8769 91.5018 10.8384 91.5715 10.746C91.6238 10.8345 91.6761 10.9222 91.7285 11.0096C91.7873 11.1737 91.8645 11.3374 91.9734 11.4986C91.9143 11.3972 91.8546 11.2674 91.8209 11.1641C91.9317 11.3486 92.0432 11.5333 92.1561 11.7212L92.1877 11.8125C92.1228 11.7973 92.0438 11.7298 91.9943 11.7718C91.9511 11.682 91.908 11.5922 91.8686 11.5009C91.9368 11.7081 92.021 11.9092 92.098 12.1142C92.3201 12.8111 92.577 13.5028 92.8929 14.1739C92.9144 14.0468 92.7784 13.7023 92.9207 13.7839C93.32 14.3419 93.0769 14.3342 93.5202 14.8212L93.4599 14.529C93.456 14.5592 93.4623 14.593 93.4606 14.6089C93.4272 14.5268 93.3971 14.4428 93.3659 14.3597C93.3416 14.3245 93.317 14.2892 93.2927 14.254C93.2936 14.2534 93.2944 14.2523 93.2953 14.2517C93.5384 14.3721 93.799 14.9588 93.8414 15.1611C94.076 15.4712 94.1579 15.4913 94.1939 15.4386C94.2821 15.5044 94.2606 15.439 94.2204 15.3617C94.2328 15.3017 94.2404 15.2451 94.2916 15.2903C94.3114 15.5018 94.4896 15.7354 94.6944 15.9721C94.695 16.0467 94.7278 16.159 94.8347 16.3178L94.8104 16.1039C95.0355 16.357 95.2941 16.5869 95.4131 16.8023L95.3826 16.7024C95.5943 16.9848 95.8276 17.2581 96.0924 17.5175L96.1443 17.4126L96.4187 17.9195C96.3577 17.7929 96.4169 17.816 96.5092 17.8778C96.5768 17.9257 96.6695 17.9887 96.7412 18.0252L96.8985 18.1334C96.937 18.1833 96.9755 18.2335 97.0138 18.2838L96.9829 18.449C97.0767 18.4728 97.1526 18.5045 97.2178 18.542C97.268 18.605 97.3166 18.6695 97.37 18.73C97.4459 18.8161 97.5212 18.9035 97.5966 18.9907C97.7145 19.2016 97.8505 19.4446 98.1752 19.679C98.1728 19.6207 98.1166 19.5492 98.1683 19.5609C98.3348 19.7787 98.7889 20.2201 98.3534 19.9557C98.5236 20.1065 98.875 20.4607 99.1476 20.6926C99.4204 20.9244 99.6012 21.044 99.4097 20.747C99.3696 20.8567 98.9554 20.375 98.7839 20.1614C98.9143 20.0833 99.3081 20.4894 99.5708 20.549C99.6365 20.6109 99.6812 20.6686 99.6969 20.7238L99.6128 20.7262C99.6516 20.7571 99.6802 20.777 99.7012 20.789C99.7006 20.792 99.7012 20.7948 99.7004 20.7978L99.7159 20.7959C99.7365 20.8049 99.7467 20.8033 99.7479 20.7922L99.9154 20.7721C100.014 20.8972 100.121 21.014 100.232 21.1248C100.237 21.1601 100.203 21.1689 100.1 21.1252L100.388 21.2752C100.458 21.3399 100.526 21.4035 100.595 21.4659C100.595 21.4803 100.595 21.4951 100.595 21.5096C100.598 21.6166 100.592 21.7157 100.602 21.8235C100.626 21.9399 100.649 22.0543 100.672 22.1657C100.722 22.3899 100.748 22.592 100.801 22.7949C100.876 23.0081 100.941 23.2041 100.995 23.3794C101.093 23.7302 101.191 23.9983 101.211 24.1581L101.43 24.0748L101.721 24.8055C101.819 25.05 101.954 25.299 102.067 25.5478L102.245 25.923L102.466 26.3102L102.686 26.7004C102.761 26.8315 102.825 26.9595 102.928 27.1005C102.817 26.9421 102.758 26.8013 102.677 26.6543L102.448 26.221C102.279 25.9311 102.18 25.6594 102.053 25.3845C102.533 26.2768 103.227 27.2892 104.131 28.3853C104.383 28.6664 104.637 28.9482 104.89 29.2295C104.918 29.2641 104.95 29.2996 104.984 29.3352C105.722 30.3629 106.621 31.3244 107.646 32.1573C107.964 32.4166 108.295 32.6604 108.634 32.8944C108.623 32.8959 108.612 32.8978 108.602 32.9032C108.636 33.3877 108.66 33.8835 108.74 34.3698C108.801 34.2903 108.787 34.0762 108.891 34.1265C109.082 34.4704 108.844 34.4732 109.073 34.7803C109.087 34.7194 109.105 34.6569 109.123 34.595C109.092 34.6352 109.096 34.6879 109.058 34.6172C108.951 34.5185 109.012 34.4398 109.077 34.4178C109.164 34.4565 109.21 34.5694 109.234 34.6879C109.261 34.8052 109.26 34.9305 109.235 34.9974C109.425 35.4262 109.505 34.9999 109.583 35.081C109.521 35.2312 109.586 35.415 109.688 35.5888C109.789 35.7632 109.906 35.9353 109.918 36.087L109.978 35.8605C110.116 35.9662 110.189 36.0904 110.238 36.2128C110.225 36.2006 110.21 36.1856 110.193 36.1643C110.219 36.2443 110.269 36.3786 110.325 36.5141C110.335 36.561 110.344 36.6056 110.353 36.6444L110.369 36.6174C110.391 36.6677 110.413 36.7166 110.434 36.7605C110.527 36.9516 110.606 37.0532 110.613 36.8273C110.557 36.8717 110.508 36.7389 110.471 36.5944C110.578 36.7641 110.721 36.87 110.828 36.9771C110.958 37.0967 111.032 37.2255 110.941 37.4895L110.985 37.4059C111.124 37.557 111.361 37.7648 111.366 37.9847C111.37 37.983 111.374 37.9823 111.378 37.9808C111.391 38.0391 111.4 38.098 111.398 38.1587C111.454 38.1516 111.536 38.2048 111.618 38.3528L111.444 38.4627C111.544 38.6085 111.634 38.7625 111.744 38.9009C111.779 38.782 111.815 38.6633 111.858 38.5424C112.043 38.7642 112.136 38.9912 112.203 39.2264C112.268 39.4624 112.332 39.6884 112.467 39.8864C112.646 39.8331 112.767 40.0296 112.913 40.2573C113.068 40.4761 113.249 40.7277 113.506 40.7804L113.322 40.4515C113.446 40.6054 113.554 40.7183 113.654 40.8106C113.756 40.9006 113.853 40.9662 113.944 41.0339C114.132 41.1651 114.293 41.3078 114.537 41.5878C114.251 41.426 114.139 41.3142 113.97 41.2051C113.805 41.0909 113.591 40.9758 113.17 40.7234C113.537 41.0226 113.805 41.3185 114.061 41.6206C114.188 41.771 114.332 41.9054 114.483 42.0376C114.639 42.1657 114.799 42.2945 115.01 42.3858C115.017 42.2917 114.88 42.1242 115.105 42.19C115.123 42.4194 115.76 42.6706 115.526 42.7477C115.786 42.8587 115.953 42.7289 116.104 42.8C116.305 43.0282 116.504 43.2656 116.733 43.4801L116.731 43.4334C117.001 43.4949 117.232 43.5914 117.469 43.6811C117.705 43.7722 117.924 43.8806 118.137 44L118.334 43.6274L118.341 43.6126L118.439 43.4289L118.835 42.6777L118.841 42.6669L118.938 42.4831L118.847 42.6547L118.946 42.4681L119.143 42.0955C119.007 42.0164 118.877 41.932 118.749 41.8452L119.082 41.4428C118.793 41.2064 118.522 40.985 118.29 40.7952C118.151 40.7766 118.315 40.8792 118.243 40.8935C118.177 40.708 117.924 40.5659 117.702 40.4446C117.482 40.3229 117.294 40.2243 117.363 40.1513C117.197 40.0853 117.041 40.1431 116.967 40.1519C116.867 39.9402 116.707 39.7306 116.525 39.5215C116.56 39.5813 116.596 39.6404 116.633 39.6985L116.596 39.7021C116.543 39.6199 116.495 39.5339 116.444 39.4501L116.461 39.4491C116.004 38.9363 115.423 38.3773 115.214 37.7695C115.315 38.0777 115.045 37.9056 115.001 37.9733C115.023 37.5441 114.595 36.9808 114.245 36.5098C114.188 36.5471 114.114 36.5359 114.107 36.6229C114.082 36.5027 114.075 36.4056 114.061 36.2919L114.008 36.3669C113.668 35.889 113.737 35.0893 113.409 34.7464C113.484 35.0109 113.42 35.0362 113.328 35.1024C113.265 34.9547 113.204 34.8088 113.142 34.6588L113.224 34.5302C113.35 34.569 113.476 34.6089 113.605 34.6427C114.095 34.7722 114.597 34.8645 115.092 34.9262L115.208 35.0023C115.206 34.9813 115.198 34.9597 115.188 34.9384C115.427 34.9661 115.664 34.9886 115.895 35L116.88 35.049C116.964 35.0683 117.049 35.0878 117.132 35.1067C117.168 35.1167 117.184 35.115 117.205 35.1163L117.266 35.1189L117.385 35.1236C117.373 35.1064 117.362 35.0897 117.35 35.0722L117.89 35.099C117.896 35.1167 117.902 35.1337 117.908 35.1544L117.9 35.0996L117.999 35.1045L117.97 35.0694C118.111 35.0634 118.284 35.0602 118.366 35.1816C118.382 35.1356 118.422 35.0825 118.48 35.0799C118.51 35.2479 118.685 35.1611 118.891 35.1742C118.769 35.1073 118.865 34.9175 118.74 34.8412C118.8 34.8172 118.846 34.8101 118.882 34.8139C118.903 34.821 118.923 34.8281 118.944 34.8354C119.05 34.9087 119.032 35.135 119.219 35.1669C119.4 35.0914 119.108 35.0329 119.091 34.9481C119.15 34.9779 119.214 34.9886 119.28 34.9892C119.322 35.0694 119.4 35.126 119.576 35.1272L119.484 34.9901C119.541 34.9929 119.596 34.988 119.648 34.9697C119.619 34.9616 119.597 34.9532 119.577 34.9445C119.603 34.938 119.63 34.9314 119.656 34.9252C119.666 34.9249 119.676 34.9249 119.685 34.926C119.682 34.9241 119.68 34.9219 119.677 34.92C119.688 34.9172 119.7 34.9142 119.711 34.9115C119.914 34.8652 120.088 34.8491 120.172 35.0653L120.004 35.1536C119.935 35.1092 119.855 35.0516 119.773 34.9918C119.819 35.076 119.823 35.2085 120.008 35.1939C120.128 35.2789 120.201 35.286 120.19 35.2491C120.136 35.2549 120.127 35.2149 120.116 35.1748C120.378 35.1047 120.55 35.2042 120.724 35.3203C120.898 35.4313 121.074 35.5571 121.327 35.5427C121.302 35.463 121.236 35.4309 121.243 35.367C121.479 35.3113 121.405 35.7861 121.798 35.6557L121.737 35.5622C121.866 35.5185 121.941 35.6524 121.922 35.6767C121.948 35.5046 122.142 35.5247 122.368 35.5307C122.58 35.5314 122.821 35.5196 122.969 35.3374L123.016 35.3188C123.028 35.331 123.04 35.343 123.054 35.355L123.078 35.49C123.103 35.4596 123.127 35.4388 123.148 35.4221C123.257 35.4872 123.392 35.5372 123.519 35.5626C123.576 35.5937 123.643 35.6107 123.729 35.5912C123.727 35.586 123.725 35.5822 123.723 35.5779C123.76 35.5749 123.793 35.568 123.819 35.5554C123.909 35.5886 123.98 35.6254 123.842 35.6769C123.902 35.6814 124.009 35.7002 124.115 35.7144C124.145 35.7257 124.18 35.7364 124.227 35.7459L124.239 35.7281C124.383 35.739 124.477 35.7221 124.354 35.6132C124.356 35.6488 124.329 35.6584 124.29 35.655L124.299 35.6413C124.29 35.6441 124.279 35.6481 124.268 35.6522C124.208 35.6409 124.13 35.6083 124.07 35.5815C124.106 35.5432 124.205 35.5232 124.227 35.4902L124.761 35.5376C124.801 35.7411 124.479 35.6996 124.445 35.7519C124.659 35.7285 124.894 35.6344 125.122 35.5571C125.146 35.5491 125.17 35.5431 125.194 35.5357C125.258 35.5635 125.317 35.6014 125.367 35.6595C125.387 35.6134 125.449 35.5819 125.56 35.6023L125.538 35.7939L125.884 35.8202L125.76 35.5282C126.147 35.5059 126.37 35.8449 126.675 35.9194C126.799 35.6074 127.266 36.0934 127.575 35.8341L127.343 35.7262C127.526 35.7632 127.656 35.763 127.77 35.7549L127.764 35.0837C127.771 35.0855 127.777 35.0874 127.783 35.0891L127.788 35.7538C127.795 35.7532 127.802 35.7531 127.808 35.7525L127.803 35.0947C127.812 35.0975 127.821 35.0998 127.83 35.1024C127.852 35.0938 127.873 35.0869 127.892 35.0825L127.893 35.1195C127.929 35.1285 127.965 35.1365 128 35.1427L127.994 34.4117Z" fill="#005B47"/>
<path d="M118.891 35.1744C118.923 35.1915 118.964 35.2027 119.032 35.1997C118.984 35.1836 118.937 35.177 118.891 35.1744Z" fill="#005B47"/>
<path d="M119.807 35.2873L119.418 35.1726C119.72 35.2731 119.479 35.313 119.807 35.2873Z" fill="#005B47"/>
<path d="M111.416 11.2347L111.478 11.2681C111.478 11.2675 111.479 11.2667 111.479 11.2662L111.417 11.233C111.417 11.2338 111.416 11.2342 111.416 11.2347Z" fill="#005B47"/>
<path d="M110.917 10.9496L110.94 10.9622L110.948 10.9567L110.921 10.9426C110.92 10.9451 110.918 10.9472 110.917 10.9496Z" fill="#005B47"/>
<path d="M110.908 10.9634L110.926 10.9724C110.926 10.972 110.927 10.9716 110.928 10.971L110.91 10.9614C110.909 10.962 110.909 10.9626 110.908 10.9634Z" fill="#005B47"/>
<path d="M111.434 11.2168C111.432 11.2189 111.43 11.2206 111.428 11.2227L111.488 11.2549C111.49 11.2528 111.492 11.2504 111.493 11.2485L111.434 11.2168Z" fill="#005B47"/>
<path d="M102.662 14.0143L102.753 14.0872C102.706 13.8617 102.68 13.9139 102.662 14.0143Z" fill="#005B47"/>
<path d="M102.677 10.8728C102.61 10.9841 102.561 11.1101 102.525 11.2403C102.586 11.283 102.654 11.1482 102.677 10.8728Z" fill="#005B47"/>
<path d="M100.946 17.2983C100.894 17.1283 100.849 16.98 100.801 16.8213C100.805 16.9378 100.851 17.1086 100.946 17.2983Z" fill="#005B47"/>
<path d="M110.629 0.674561L110.634 0.645898C110.57 0.658047 110.586 0.666778 110.629 0.674561Z" fill="#005B47"/>
<path d="M110.636 0.638719H110.635L110.635 0.638939L110.635 0.639158L110.634 0.639598L110.632 0.640477L110.631 0.642455C110.631 0.643554 110.632 0.644653 110.634 0.645752L110.636 0.638719Z" fill="#005B47"/>
<path d="M104.811 3.63882C104.812 3.64398 104.811 3.64934 104.814 3.6543C104.818 3.64834 104.817 3.64299 104.811 3.63882Z" fill="#005B47"/>
<path d="M110.631 0.675063C110.63 0.674873 110.63 0.674684 110.629 0.674495L110.624 0.700793C110.625 0.700793 110.626 0.700983 110.627 0.701172L110.631 0.675063Z" fill="#005B47"/>
<path d="M110.634 0.645633V0.646484L110.634 0.646201C110.634 0.645917 110.634 0.645633 110.634 0.645633Z" fill="#005B47"/>
<path d="M103.14 1.9654C103.408 1.67777 103.653 1.45671 103.528 1.42296C103.385 1.69971 103.111 1.92865 102.878 2.15909C102.643 2.38447 102.456 2.61004 102.49 2.79004C102.535 2.69891 102.634 2.56616 102.745 2.41466C102.868 2.27103 103 2.10603 103.14 1.9654Z" fill="#005B47"/>
<path d="M112.049 25.2666C112.057 25.2598 112.062 25.2527 112.068 25.2457C112.044 25.2384 112.011 25.235 111.966 25.237L112.049 25.2666Z" fill="#005B47"/>
<path d="M114.703 25.522C114.704 25.5162 114.703 25.5088 114.699 25.5002L114.699 25.5004C114.703 25.5082 114.704 25.5154 114.703 25.522Z" fill="#005B47"/>
<path d="M117.433 24.1609C117.441 24.1543 117.445 24.147 117.452 24.14C117.428 24.1328 117.395 24.1292 117.35 24.1313L117.433 24.1609Z" fill="#005B47"/>
<path d="M121.626 25.4211L121.575 25.3821L121.596 25.481L121.626 25.4211Z" fill="#005B47"/>
<path d="M120.056 25.7062C120.065 25.7075 120.073 25.7083 120.082 25.71C120.082 25.7096 120.082 25.7092 120.082 25.7092C120.073 25.705 120.065 25.702 120.056 25.699L120.056 25.7062Z" fill="#005B47"/>
<path d="M120.087 24.4163C120.088 24.4105 120.087 24.4031 120.083 24.3945L120.083 24.3947C120.087 24.4025 120.088 24.4097 120.087 24.4163Z" fill="#005B47"/>
<path d="M95.0161 10.1716C95.0161 10.1708 95.0162 10.1701 95.0162 10.1693L94.8523 10.1994C94.8525 10.2001 94.8529 10.2009 94.853 10.2014L95.0161 10.1716Z" fill="#005B47"/>
<path d="M96.4187 17.919C96.4309 17.9444 96.4463 17.9738 96.4691 18.0122L96.4187 17.919Z" fill="#005B47"/>
<path d="M93.1835 10.5069C93.1834 10.5063 93.183 10.5055 93.1828 10.5048L93.1288 10.5148C93.1292 10.5153 93.1293 10.5161 93.1295 10.5168L93.1835 10.5069Z" fill="#005B47"/>
<path d="M92.5634 9.6774L92.5514 9.65469L92.4174 9.71157C92.4198 9.72002 92.4232 9.72752 92.4261 9.7356L92.5634 9.6774Z" fill="#005B47"/>
<path d="M91.4904 10.1045L91.358 10.1606L91.3739 10.1816L91.4992 10.1285C91.4964 10.1204 91.4936 10.1122 91.4904 10.1045Z" fill="#005B47"/>
<path d="M68.2926 30.3939C68.2514 30.0889 68.2327 29.8046 68.1718 29.5301C67.9973 28.742 67.6119 28.0899 66.8958 27.6759C65.4917 26.8638 63.5665 27.4068 62.683 28.8632C62.3996 29.3304 62.1982 29.8301 62.1076 30.3939H68.2926ZM62.1558 32.2322C61.9458 32.2311 61.8797 32.2922 61.8647 32.506C61.8024 33.412 61.8872 34.2848 62.3725 35.0785C63.0533 36.1921 64.0434 36.8161 65.3441 36.917C66.122 36.9772 66.893 36.9183 67.619 36.6007C68.2599 36.32 68.6879 35.8649 68.7178 35.1207C68.7285 34.8569 68.6338 34.6474 68.4148 34.4903C68.1585 34.3062 68.1368 34.0786 68.3928 33.8976C68.5721 33.7707 68.7952 33.6812 69.0115 33.6362C70.4625 33.3344 71.525 34.5301 71.0677 35.9407C70.7934 36.787 70.2008 37.37 69.4627 37.8084C68.0079 38.6726 66.4187 38.9045 64.7575 38.7553C63.7425 38.6641 62.7706 38.4189 61.8718 37.9218C60.4221 37.1197 59.5058 35.902 59.1247 34.2942C58.7015 32.5084 58.8489 30.7534 59.5665 29.0683C60.3607 27.2036 61.7667 26.0356 63.7371 25.5622C64.6074 25.3531 65.4868 25.2729 66.3774 25.4118C68.2177 25.6989 69.5813 26.6596 70.4306 28.3269C70.9365 29.3203 71.0628 30.3938 71.0226 31.4918C71.0023 32.046 70.8048 32.2305 70.2428 32.233C68.8991 32.2388 63.5076 32.2407 62.1558 32.2322Z" fill="#005B47"/>
<path d="M19.7202 30.4087H20.0055C21.1699 30.4087 24.9323 30.4081 25.6489 30.4092C25.7694 30.4092 25.8739 30.416 25.8666 30.2365C25.8161 28.976 25.1722 27.5564 23.4844 27.3392C21.5656 27.0925 20.0451 28.3954 19.7202 30.4087ZM19.7639 32.2319C19.5435 32.2306 19.4753 32.2948 19.4615 32.5188C19.4088 33.3811 19.4714 34.2204 19.9149 34.9847C20.6616 36.2715 21.7913 36.9145 23.2717 36.9341C23.9431 36.9431 24.6054 36.8713 25.2295 36.5979C25.9376 36.2878 26.3491 35.7246 26.3026 35.0595C26.2894 34.8712 26.1797 34.619 26.0327 34.5253C25.7018 34.3145 25.793 33.9917 26.0741 33.8233C26.4698 33.5861 26.9059 33.5431 27.3494 33.6232C28.4649 33.8246 29.0235 34.7912 28.6762 35.9066C28.4058 36.7748 27.8033 37.3684 27.0484 37.8147C25.5837 38.68 23.9872 38.907 22.3174 38.7509C21.3018 38.6556 20.3315 38.4062 19.4365 37.9033C18.0007 37.0967 17.0954 35.8819 16.7201 34.2812C16.2988 32.4851 16.4494 30.7235 17.1786 29.0337C17.9737 27.1907 19.3739 26.0378 21.3235 25.5636C22.2514 25.3378 23.1913 25.2587 24.1333 25.4303C25.6641 25.7091 26.8844 26.485 27.7366 27.8054C28.4645 28.9328 28.6728 30.1906 28.6179 31.5052C28.5953 32.0491 28.3989 32.2304 27.8508 32.2329C26.5072 32.2391 21.1158 32.2411 19.7639 32.2319Z" fill="#005B47"/>
<path d="M88.1402 27.9682C88.1421 27.7287 88.0687 27.6569 87.8355 27.668C87.4699 27.6852 87.1028 27.6768 86.7367 27.6687C86.5995 27.6657 86.4598 27.6462 86.3273 27.6113C86.0451 27.5371 85.95 27.2525 86.1271 27.0173C86.1848 26.9406 86.2597 26.872 86.3387 26.8165C87.9091 25.7159 89.0125 24.238 89.8115 22.5113C89.8934 22.3346 89.9922 22.1646 90.0957 21.9994C90.1943 21.8417 90.337 21.7534 90.5308 21.8147C90.7217 21.8752 90.7946 22.0217 90.7875 22.212C90.7789 22.4402 90.7587 22.668 90.7529 22.896C90.7312 23.728 90.7161 24.5601 90.6924 25.3921C90.6871 25.5842 90.8063 25.5704 90.9332 25.5702C91.8043 25.5691 92.6755 25.5694 93.5466 25.5702C93.6768 25.5704 93.8083 25.5661 93.9371 25.5812C94.1209 25.6028 94.3262 25.609 94.4134 25.8156C94.5098 26.0438 94.5173 26.2688 94.3585 26.4869C94.1906 26.717 94.0267 26.9525 93.8879 27.2007C93.6989 27.539 93.4179 27.6747 93.0441 27.6725C92.3358 27.6682 91.6274 27.6762 90.9192 27.6698C90.7518 27.6683 90.6905 27.7199 90.6913 27.8928C90.701 30.2765 90.7023 32.6599 90.7154 35.0434C90.7167 35.277 90.7632 35.5148 90.8202 35.7426C91.0544 36.6769 91.8957 36.8655 92.6078 36.7204C93.4545 36.5483 94.0505 36.0392 94.3015 35.1776C94.3449 35.0295 94.3968 34.8827 94.4601 34.7423C94.5313 34.5846 94.6429 34.4655 94.8385 34.4998C95.0294 34.5332 95.1351 34.6551 95.1661 34.8454C95.278 35.5343 95.1805 36.1978 94.8936 36.8275C94.266 38.2032 92.7696 38.9879 91.23 38.776C90.3002 38.6481 89.4627 38.3356 88.8219 37.6156C88.4016 37.1432 88.1524 36.588 88.1466 35.9515C88.1344 34.6292 88.1296 29.3067 88.1402 27.9682Z" fill="#005B47"/>
<path d="M18.2586 38.8995C18.1114 38.8408 17.9436 38.8211 17.7834 38.8102C16.8934 38.7504 16.0811 38.4656 15.3398 37.9745C14.2345 37.2425 13.3561 36.2733 12.6279 35.1858C11.7756 33.913 10.9755 32.6054 10.1649 31.3047L10.171 31.3035C10.14 31.26 10.1232 31.2062 10.0853 31.1269C10.1806 31.1104 10.4111 31.0997 10.466 31.0917C11.2441 30.9793 11.9961 30.7785 12.6966 30.4133C13.8187 29.8284 14.6633 28.9813 15.0272 27.7459C15.6785 25.5333 14.5863 23.3013 12.457 22.4005C11.3607 21.937 10.202 21.8269 9.03723 21.8163C6.25213 21.7908 3.46684 21.8024 0.681737 21.8003C0.584217 21.8003 0.479598 21.7975 0.392353 21.8239C0.254855 21.8654 0.100729 21.9574 0.0409471 22.0716C-0.046858 22.2396 0.0265616 22.4286 0.181808 22.5513C0.327901 22.6666 0.486698 22.7671 0.644561 22.8668C1.05668 23.1275 1.48973 23.3588 1.87962 23.6489C2.3732 24.0157 2.61251 24.5311 2.5929 25.1572C2.58711 25.3366 2.58524 31.7847 2.59775 35.1571C2.60056 35.879 2.35937 36.4454 1.75557 36.8433C1.34793 37.1122 0.932262 37.3687 0.523315 37.6355C0.380958 37.7283 0.227205 37.8164 0.114927 37.9398C-0.0995417 38.1751 -0.00108799 38.4838 0.304361 38.5644C0.428223 38.597 0.561612 38.6051 0.69033 38.6055C2.89741 38.6075 5.29636 38.6055 7.31158 38.6055C7.43282 38.6055 7.55762 38.6004 7.67438 38.5717C8.00655 38.4901 8.10818 38.1705 7.86606 37.9226C7.72109 37.7741 7.53296 37.6646 7.35436 37.5534C6.98838 37.3259 6.60391 37.127 6.24876 36.8842C5.66066 36.4824 5.39855 35.9155 5.40098 35.1929C5.41181 31.8124 5.40434 29.088 5.40826 25.7075C5.40845 25.4388 5.42713 25.1681 5.46655 24.9026C5.54296 24.3897 5.806 23.9994 6.33657 23.9075C7.67363 23.6755 9.02023 23.6214 10.3128 24.1038C11.821 24.6669 12.4269 26.1513 11.7805 27.6155C11.2856 28.7362 10.3545 29.2614 9.17828 29.3537C8.37607 29.4167 7.56789 29.4026 6.7627 29.4291C6.58523 29.4349 6.40607 29.4546 6.23232 29.4904C6.03374 29.5311 5.9293 29.6796 5.98273 29.8708C6.04756 30.1022 6.12901 30.3401 6.25736 30.54C6.35394 30.69 6.45408 30.8378 6.55552 30.9846L6.54992 30.9852C7.61665 32.6056 8.6606 34.2423 9.77105 35.8321C10.5811 36.992 11.5548 38.016 12.7161 38.8438C14.242 39.9315 15.9185 40.2264 17.7269 39.7905C17.9487 39.737 18.1706 39.6206 18.3533 39.4815C18.5884 39.3022 18.534 39.0092 18.2586 38.8995Z" fill="#005B47"/>
<path d="M37.9002 35.6783C37.1966 36.6175 36.2093 36.8603 35.0955 36.7171C34.6293 36.6573 34.1957 36.5106 33.8154 36.2181C32.9242 35.5324 33.089 33.7731 34.4386 33.3709C35.0602 33.1856 35.6989 33.0538 36.3352 32.9248C37.104 32.769 37.8533 32.5643 38.5535 32.2018C38.5869 32.1846 38.6258 32.1776 38.6893 32.157C38.7287 33.4165 38.6805 34.6365 37.9002 35.6783ZM43.8982 36.5234C43.8982 36.2172 43.6509 35.9689 43.3458 35.9689C43.1881 35.9689 43.0467 36.0361 42.946 36.1424L42.9443 36.1407C42.915 36.1758 42.8851 36.2103 42.8529 36.2423C42.5951 36.4994 42.2768 36.5766 41.9314 36.4923C41.5934 36.4098 41.4589 36.1351 41.4032 35.8242C41.3629 35.6007 41.3405 35.3712 41.3397 35.1439C41.3349 33.3317 41.3418 31.5197 41.3334 29.7075C41.3313 29.2925 41.3111 28.8738 41.2519 28.4638C41.0477 27.0485 40.2545 26.1286 38.8871 25.709C37.7741 25.3672 36.6304 25.2976 35.4803 25.3634C34.4864 25.4206 33.5363 25.6735 32.69 26.2272C31.907 26.7395 31.3512 27.4057 31.266 28.3882C31.2552 28.5148 31.2591 28.6378 31.2707 28.7581C31.2741 28.9351 31.3137 29.103 31.3822 29.255C31.385 29.2627 31.3869 29.271 31.3899 29.2786L31.3931 29.2775C31.596 29.7045 32.0288 30.0003 32.5316 30.0003C33.2035 30.0003 33.7513 29.4727 33.79 28.8078L33.7915 28.8082C33.7924 28.7266 33.8038 28.6436 33.8296 28.5615C33.9473 28.1859 34.214 27.9356 34.5468 27.7655C35.4932 27.2817 36.4688 27.2606 37.4507 27.6474C37.8737 27.8139 38.209 28.1 38.3829 28.5318C38.716 29.3585 38.3665 30.2197 37.4759 30.5347C36.6911 30.8124 35.8642 30.978 35.0484 31.1584C34.1991 31.3459 33.3412 31.4861 32.5366 31.8424C30.6402 32.682 30.1748 34.4807 30.527 36.1017C30.7968 37.3439 31.6505 38.0904 32.8137 38.4985C33.7539 38.8287 34.7231 38.8524 35.706 38.7363C36.7124 38.617 37.6082 38.2582 38.3732 37.5867C38.5677 37.4161 38.7543 37.2363 38.9553 37.0505C38.9923 37.1251 39.0265 37.1806 39.0484 37.2406C39.3568 38.0853 39.9473 38.5833 40.8314 38.7629C42.2136 39.0434 43.6432 38.0088 43.8855 36.6545L43.8812 36.6535C43.8915 36.6117 43.8982 36.5684 43.8982 36.5234Z" fill="#005B47"/>
<path d="M80.3937 35.6783C79.6901 36.6175 78.7028 36.8603 77.589 36.7171C77.1229 36.6573 76.6892 36.5106 76.3089 36.2181C75.4178 35.5324 75.5825 33.7731 76.9321 33.3709C77.5537 33.1856 78.1924 33.0538 78.8287 32.9248C79.5975 32.769 80.3468 32.5643 81.047 32.2018C81.0804 32.1846 81.1193 32.1776 81.1826 32.157C81.2222 33.4165 81.174 34.6365 80.3937 35.6783ZM86.3917 36.5234C86.3917 36.2172 86.1444 35.9689 85.8391 35.9689C85.6816 35.9689 85.5402 36.0361 85.4395 36.1424L85.4378 36.1407C85.4085 36.1758 85.3786 36.2103 85.3464 36.2423C85.0886 36.4994 84.7703 36.5766 84.4247 36.4923C84.0869 36.4098 83.9524 36.1351 83.8965 35.8242C83.8564 35.6007 83.834 35.3712 83.8332 35.1439C83.8284 33.3317 83.8353 31.5197 83.8269 29.7075C83.8248 29.2925 83.8046 28.8738 83.7454 28.4638C83.5412 27.0485 82.748 26.1286 81.3806 25.709C80.2676 25.3672 79.1237 25.2976 77.9738 25.3634C76.9799 25.4206 76.0298 25.6735 75.1835 26.2272C74.4005 26.7395 73.8447 27.4057 73.7595 28.3882C73.7485 28.5148 73.7526 28.6378 73.7642 28.7581C73.7676 28.9351 73.8072 29.103 73.8757 29.255C73.8785 29.2627 73.8804 29.271 73.8834 29.2786L73.8866 29.2775C74.0895 29.7045 74.5223 30.0003 75.0251 30.0003C75.697 30.0003 76.2448 29.4727 76.2835 28.8078L76.285 28.8082C76.2859 28.7266 76.2973 28.6436 76.3231 28.5615C76.4408 28.1859 76.7076 27.9356 77.0403 27.7655C77.9867 27.2817 78.9623 27.2606 79.9442 27.6474C80.3672 27.8139 80.7025 28.1 80.8764 28.5318C81.2095 29.3585 80.86 30.2197 79.9694 30.5347C79.1844 30.8124 78.3577 30.978 77.5419 31.1584C76.6926 31.3459 75.8347 31.4861 75.0301 31.8424C73.1337 32.682 72.6683 34.4807 73.0203 36.1017C73.2903 37.3439 74.1438 38.0904 75.3072 38.4985C76.2474 38.8287 77.2166 38.8524 78.1995 38.7363C79.2059 38.617 80.1017 38.2582 80.8667 37.5867C81.0612 37.4161 81.2478 37.2363 81.4488 37.0505C81.4858 37.1251 81.52 37.1806 81.5419 37.2406C81.8501 38.0853 82.4407 38.5833 83.3249 38.7629C84.707 39.0434 86.1367 38.0088 86.379 36.6545L86.3747 36.6535C86.3848 36.6117 86.3917 36.5684 86.3917 36.5234Z" fill="#005B47"/>
<path d="M50.3657 36.6413C50.8823 36.7158 51.4058 36.7298 51.9132 36.56C52.7563 36.2778 53.3291 35.6806 53.7487 34.9257C54.4717 33.6252 54.6435 32.2247 54.3895 30.7772C54.0777 29.0028 52.9708 27.8156 51.2724 27.572C49.9258 27.3787 48.6216 27.9566 47.9248 29.1403C47.3486 30.1192 47.1513 31.2092 47.1513 32.3126C47.1513 35.1391 48.6167 36.3891 50.3657 36.6413ZM54.3788 27.2954C54.387 27.1569 54.3956 27.0791 54.3956 27.0013C54.3966 26.0459 54.3762 25.0902 54.4029 24.1358C54.4218 23.4608 54.1952 22.9262 53.6721 22.5111C53.4935 22.3696 53.3091 22.2347 53.1359 22.0868C53.0382 22.0034 52.9366 21.912 52.8738 21.8029C52.7075 21.5136 52.8075 21.2927 53.1281 21.2205C53.2459 21.1939 53.37 21.1862 53.4912 21.1858C54.3868 21.1832 55.2826 21.183 56.1784 21.187C56.3156 21.1873 56.4544 21.2048 56.5896 21.2292C56.8246 21.2719 56.9655 21.4182 56.9946 21.6569C57.0161 21.8344 57.0335 22.014 57.0335 22.1927C57.0356 26.6831 57.0494 31.1736 57.0216 35.6637C57.0167 36.4433 57.2967 36.9959 57.894 37.435C58.0515 37.5509 58.2187 37.6574 58.3581 37.7922C58.4591 37.8899 58.5473 38.0182 58.5955 38.1496C58.674 38.3645 58.5763 38.5216 58.3525 38.5666C58.194 38.5985 58.0296 38.6146 57.8678 38.6156C57.0455 38.6201 56.2231 38.6176 55.4005 38.6167C55.3193 38.6167 55.2376 38.6141 55.1567 38.606C54.7375 38.5646 54.5985 38.4284 54.578 38.0024C54.5621 37.6765 54.5716 37.3493 54.5686 37.0229C54.5681 36.976 54.56 36.9293 54.5509 36.8362C54.469 36.9142 54.4102 36.9623 54.3609 37.019C53.4901 38.0129 52.3976 38.5713 51.0895 38.738C49.8415 38.897 48.655 38.7335 47.5422 38.132C46.1347 37.3717 45.1953 36.2033 44.6956 34.6986C44.0348 32.7081 44.1751 30.7251 45.0042 28.8232C45.8146 26.9639 47.2526 25.8423 49.2865 25.5627C50.5139 25.3942 51.7174 25.4934 52.8166 26.1106C53.2867 26.3742 53.6939 26.7509 54.1283 27.0781C54.2021 27.1338 54.2684 27.1993 54.3788 27.2954Z" fill="#005B47"/>
</svg>
